<?xml version="1.0" encoding="utf-8"?>
<!-- Generator: Adobe Illustrator 26.3.1, SVG Export Plug-In . SVG Version: 6.00 Build 0)  -->
<svg version="1.1" id="Layer_1" xmlns:serif="http://www.serif.com/"
	 xmlns="http://www.w3.org/2000/svg" xmlns:xlink="http://www.w3.org/1999/xlink" x="0px" y="0px" viewBox="0 0 1920 1080"
	 style="enable-background:new 0 0 1920 1080;" xml:space="preserve">
<style type="text/css">
	.st0{fill:none;}
	.st1{fill-rule:evenodd;clip-rule:evenodd;fill:#61E0EE;}
	.st2{fill-rule:evenodd;clip-rule:evenodd;}
	.st3{fill:none;stroke:#61E0EE;stroke-width:11.1;stroke-linecap:round;stroke-linejoin:round;stroke-miterlimit:11.25;}
	
		.st4{fill-rule:evenodd;clip-rule:evenodd;fill:#D6C295;stroke:#000000;stroke-width:11.1;stroke-linecap:round;stroke-linejoin:round;stroke-miterlimit:11.25;}
	.st5{clip-path:url(#SVGID_00000095324202692963603330000007820038023452338096_);}
	.st6{fill-rule:evenodd;clip-rule:evenodd;fill:#4FCBE0;}
	.st7{fill-rule:evenodd;clip-rule:evenodd;fill:#B7F8FF;}
	.st8{fill-rule:evenodd;clip-rule:evenodd;fill:#FB8BCD;}
	
		.st9{fill-rule:evenodd;clip-rule:evenodd;fill:#FFFFFF;stroke:#000000;stroke-width:11.1;stroke-linecap:round;stroke-linejoin:round;stroke-miterlimit:11.25;}
	.st10{fill-rule:evenodd;clip-rule:evenodd;fill:#FFFFFF;}
	.st11{fill-rule:evenodd;clip-rule:evenodd;fill:#F2AF0D;}
	.st12{clip-path:url(#SVGID_00000173880759342612692880000016614435992474333108_);}
	.st13{fill-rule:evenodd;clip-rule:evenodd;fill:#EC9307;}
	.st14{fill-rule:evenodd;clip-rule:evenodd;fill:#B6B6B6;}
	.st15{fill:none;stroke:#000000;stroke-width:11.1;stroke-linecap:round;stroke-linejoin:round;stroke-miterlimit:11.25;}
	
		.st16{fill-rule:evenodd;clip-rule:evenodd;fill:#FFFFFF;stroke:#B6B6B6;stroke-width:11.1;stroke-linecap:round;stroke-linejoin:round;stroke-miterlimit:11.25;}
	.st17{fill-rule:evenodd;clip-rule:evenodd;fill:#FFDA81;}
	.st18{clip-path:url(#SVGID_00000025429655205029039570000016546029623821415852_);}
</style>
<rect id="_1" x="420" serif:id="1" class="st0" width="1080" height="1080">
</rect>
<g>
	<path class="st1" d="M1131.7,340.2c0.9-5.5,12.2-13.9,16.9-15.9c57.1-23.2,37.1,42.2,3.8,39.6"/>
	<path class="st2" d="M1169.5,312.7l0.3,0h0.3l0.3,0l0.3,0l0.3,0l0.2,0l0.3,0l0.2,0l0.2,0l0.2,0l0.2,0l0.2,0l0.2,0l0.2,0l0.2,0
		l0.2,0l0.2,0l0.2,0l0.2,0l0.2,0l0.2,0l0.2,0l0.2,0l0.2,0l0.2,0l0.2,0l0.2,0l0.2,0.1l0.2,0.1l0.2,0.1l0.2,0.1l0.2,0.1l0.2,0.1
		l0.2,0.1l0.2,0.1l0.2,0.1l0.2,0.1l0.2,0.1l0.2,0.1l0.2,0.1l0.2,0.1l0.2,0.1l0.2,0.1l0.2,0.1l0.2,0.1l0.2,0.1l0.2,0.1l0.2,0.1
		l0.2,0.1l0.2,0.1l0.2,0.1l0.2,0.1l0.2,0.1l0.2,0.1l0.2,0.1l0.2,0.1l0.2,0.1l0.2,0.1l0.2,0.1l0.2,0.1l0.2,0.1l0.2,0.1l0.2,0.1
		l0.2,0.1l0.2,0.1l0.2,0.1l0.2,0.1l0.2,0.1l0.2,0.1l0.2,0.1l0.2,0.1l0.2,0.1l0.2,0.1l0.2,0.1l0.2,0.1l0.2,0.1l0.2,0.1l0.1,0.1
		l0.1,0.2l0.1,0.2l0.1,0.2l0.1,0.2l0.1,0.2l0.1,0.2l0.1,0.2l0.1,0.2l0.1,0.2l0.1,0.2l0.1,0.2l0.1,0.2l0.1,0.2l0.1,0.2l0.1,0.2
		l0.1,0.2l0.1,0.2l0.1,0.2l0.1,0.2l0.1,0.2l0.1,0.2l0.1,0.2l0.1,0.2l0.1,0.2l0.1,0.2l0.1,0.2l0.1,0.2l0.1,0.2l0.1,0.2l0.1,0.2
		l0.1,0.2l0.1,0.2l0.1,0.2l0.1,0.2l0.1,0.2l0.1,0.2l0.1,0.2l0.1,0.2l0.1,0.2l0.1,0.2l0.1,0.2l0.1,0.2l0.1,0.2l0.1,0.2l0.1,0.2
		l0.1,0.2l0.1,0.2l0,0.2l0,0.2l0,0.2l0,0.2l0,0.2l0,0.2l0,0.2l0,0.2l0,0.2l0,0.2l0,0.2l0.1,0.4l0,0.4l0,0.4l0,0.4l0,0.4l0,0.4l0,0.4
		l0,0.4l0,0.4l0,0.4l0,0.4l0,0.4l0,0.4l0,0.4l0,0.4l0,0.4l0,0.4l0,0.4l0,0.4l-0.1,0.4l-0.1,0.4l-0.1,0.4l-0.1,0.4l-0.1,0.4l-0.1,0.4
		l-0.1,0.4l-0.1,0.4l-0.1,0.4l-0.1,0.4l-0.1,0.4l-0.1,0.4l-0.1,0.4l-0.1,0.4l-0.1,0.4l-0.1,0.4l-0.1,0.4l-0.1,0.4l-0.1,0.4l-0.1,0.4
		l-0.1,0.4l-0.1,0.4l-0.1,0.4l-0.2,0.4l-0.2,0.4l-0.2,0.4l-0.2,0.4l-0.2,0.4l-0.2,0.4l-0.2,0.4l-0.2,0.4l-0.2,0.4l-0.2,0.4l-0.2,0.4
		l-0.2,0.4l-0.2,0.4l-0.2,0.4l-0.2,0.4l-0.2,0.4l-0.2,0.4l-0.2,0.4l-0.2,0.4l-0.2,0.4l-0.2,0.3l-0.2,0.4l-0.2,0.3l-0.2,0.3l-0.3,0.3
		l-0.3,0.3l-0.3,0.3l-0.3,0.3l-0.3,0.3l-0.3,0.3l-0.3,0.3l-0.3,0.3l-0.3,0.3l-0.3,0.3l-0.3,0.3l-0.3,0.3l-0.3,0.3l-0.3,0.3l-0.3,0.3
		l-0.3,0.3l-0.3,0.3l-0.3,0.3l-0.3,0.3l-0.3,0.3l-0.3,0.3l-0.3,0.3l-0.3,0.3l-0.3,0.3l-0.3,0.3l-0.3,0.3l-0.3,0.3l-0.3,0.3l-0.3,0.3
		l-0.4,0.3l-0.4,0.3l-0.4,0.3l-0.4,0.3l-0.4,0.3l-0.4,0.3l-0.4,0.2l-0.4,0.2l-0.4,0.2l-0.4,0.2l-0.4,0.2l-0.4,0.2l-0.4,0.2l-0.4,0.2
		l-0.4,0.2l-0.4,0.2l-0.4,0.2l-0.4,0.2l-0.4,0.2l-0.4,0.2l-0.4,0.2l-0.4,0.2l-0.4,0.2l-0.2,0.1l-0.2,0.1l-0.2,0.1l-0.2,0.1l-0.2,0.1
		l-0.2,0.1l-0.2,0.1l-0.2,0.1l-0.2,0.1l-0.2,0.1l-0.2,0.1l-0.2,0.1l-0.2,0.1l-0.2,0.1l-0.2,0.1l-0.2,0.1l-0.2,0.1l-0.2,0.1l-0.2,0.1
		l-0.2,0.1l-0.2,0.1l-0.2,0.1l-0.2,0l-0.2,0.1l-0.2,0l-0.2,0l-0.2,0l-0.2,0l-0.2,0l-0.2,0l-0.2,0l-0.2,0l-0.2,0l-0.2,0l-0.2,0
		l-0.2,0l-0.2,0l-0.2,0l-0.2,0l-0.2,0l-0.2,0l-0.2,0l-0.2,0l-0.2,0l-0.2,0l-0.2,0l-0.2,0l-0.2,0l-0.2,0h-0.2l-0.2,0h-0.2h-0.2
		l-0.2,0h-0.2l-0.2,0l-0.2,0l-0.2,0l-0.2,0l-0.3,0l-0.2,0l-0.2,0l-0.4,0l-0.4-0.1l-0.4-0.1l-0.4-0.1l-0.4-0.1l-0.3-0.1l-0.3-0.2
		l-0.3-0.2l-0.3-0.2l-0.3-0.2l-0.3-0.2l-0.3-0.3l-0.3-0.3l-0.3-0.3l-0.2-0.3l-0.2-0.3l-0.2-0.3l-0.2-0.3l-0.2-0.3l-0.1-0.3l-0.1-0.4
		l-0.1-0.4l-0.1-0.4l-0.1-0.4l0-0.4l0-0.4l0-0.4l0-0.4l0-0.4l0.1-0.4l0.1-0.4l0.1-0.4l0.1-0.4l0.1-0.3l0.2-0.3l0.2-0.3l0.2-0.3
		l0.2-0.3l0.2-0.3l0.3-0.3l0.3-0.3l0.3-0.3l0.3-0.2l0.3-0.2l0.3-0.2l0.3-0.2l0.3-0.2l0.3-0.1l0.4-0.1l0.4-0.1l0.4-0.1l0.4-0.1l0.4,0
		l0.4,0l0.4,0l0.4,0l0.2,0l0.1,0l0.1,0l0.1,0l0.1,0l0.1,0h0.1l0.1,0h0.1h0.1h0.1h0.1l0.1,0h0.1l0.1,0l0.1,0l0.1,0l0.1,0l0.1,0l0.1,0
		l0.1,0l0.1,0l0.1,0l0.1,0l0.1,0l0.1,0l0.1,0l0.1,0l0.1,0l0.1,0l0.1,0l0.1,0l0.1,0l0.1,0l0.1,0l0.1,0l0.1,0l0.1,0l0.1,0l0.1,0l0.1,0
		l0.1,0l0.1,0l0.1,0l0.1,0l0.1,0l0.1,0l0.1,0l0.1,0l0.1,0l0.1,0l0.1,0l0.1,0l0.1,0l0.1,0l0.1,0l0.1,0l0.1,0l0.1,0l0.1,0l0.1,0l0.1,0
		l0.3-0.1l0.3-0.1l0.3-0.1l0.3-0.1l0.3-0.1l0.3-0.1l0.3-0.1l0.3-0.1l0.2-0.1l0.3-0.1l0.3-0.1l0.2-0.1l0.2-0.1l0.2-0.1l0.2-0.2
		l0.2-0.2l0.2-0.2l0.2-0.2l0.2-0.2l0.2-0.2l0.2-0.2l0.2-0.2l0.2-0.2l0.2-0.2l0.2-0.2l0.2-0.2l0.2-0.2l0.2-0.2l0.2-0.2l0.2-0.2
		l0.2-0.2l0.2-0.2l0.2-0.2l0.2-0.2l0.2-0.2l0.2-0.2l0.2-0.2l0.2-0.2l0.2-0.2l0.2-0.2l0.2-0.2l0.2-0.2l0.2-0.2l0.2-0.2l0.2-0.2
		l0.2-0.2l0.2-0.2l0.2-0.2l0.2-0.2l0.2-0.2l0.2-0.2l0.2-0.2l0.2-0.2l0.2-0.2l0.2-0.2l0.2-0.2l0.2-0.2l0.2-0.3l0.2-0.2l0.1-0.3
		l0.1-0.3l0.1-0.3l0.1-0.3l0.1-0.2l0.1-0.3l0.1-0.3l0.1-0.3l0.1-0.3l0.1-0.3l0.1-0.3l0.1-0.3l0.1-0.3l0.1-0.3l0.1-0.3l0.1-0.3
		l0.1-0.3l0.1-0.3l0.1-0.2l0.1-0.3l0.1-0.3l0.1-0.3l0.1-0.2l0.1-0.2l0.1-0.3l0.1-0.2l0.1-0.2l0.1-0.2l0.1-0.2l0.1-0.2l0.1-0.2
		l0.1-0.2l0-0.2l0.1-0.2l0-0.2l0-0.2l0-0.2l0-0.2l0-0.2l0-0.2l0-0.2l0-0.2l0-0.2l0-0.2l0-0.2l0-0.2l0-0.2l0-0.2v-0.2v-0.2v-0.2
		l0-0.2l0-0.2l0-0.2l0-0.2l0-0.2l0-0.2l0-0.2l0-0.2l0-0.1l0-0.1l0-0.1l0-0.1l0-0.1l0-0.1l0-0.1l0-0.1l0-0.1l0-0.1l0-0.1l0-0.1l0-0.1
		l0-0.1l0-0.1l0-0.1l0-0.1l0-0.1l0-0.1l0-0.1l0-0.1l0-0.1l0-0.1l0-0.1l0-0.1l0-0.1l0-0.1l0-0.1l0-0.1l0-0.1l0-0.1l0,0l0-0.1l0,0
		l0-0.1l0,0l0,0l0,0l0,0l0,0l0,0l0,0l0,0l0,0l0,0l0,0l0,0l0,0l0,0l0,0l0,0l0,0l0,0l0,0l0,0l0,0l0,0l0,0l0,0l0,0l0,0l0,0l0,0l0,0l0,0
		l0,0l0,0l0,0l0,0l0,0l0,0l0,0l0,0l0,0l-0.1,0l-0.1,0l0,0l-0.1,0l-0.1,0l-0.1,0l-0.1,0l-0.1,0l-0.1,0l-0.1,0l-0.1,0l-0.1,0l-0.1,0
		l-0.1,0l-0.1,0l-0.1,0l-0.1,0l-0.1,0l-0.1,0l-0.1,0l-0.1,0l-0.1,0l-0.1,0l-0.1,0l-0.1,0l-0.1,0l-0.1,0l-0.1,0l-0.1,0l-0.1,0l-0.1,0
		l-0.1,0l-0.1,0l-0.1,0l-0.1,0l-0.1,0l-0.1,0l-0.1,0l-0.1,0l-0.1,0l-0.1,0l-0.1,0l-0.1,0l-0.1,0l-0.1,0l-0.1,0l-0.1,0l-0.1,0l-0.1,0
		l-0.1,0l-0.1,0l-0.1,0l-0.1,0l-0.1,0l-0.1,0l-0.1,0l-0.1,0l-0.1,0h-0.1l-0.1,0h-0.2h-0.2l-0.2,0l-0.2,0h-0.2h-0.2l-0.2,0l-0.2,0
		l-0.2,0l-0.2,0l-0.2,0l-0.2,0l-0.2,0l-0.2,0l-0.2,0l-0.2,0l-0.2,0l-0.2,0l-0.2,0l-0.2,0l-0.2,0l-0.2,0l-0.2,0l-0.2,0l-0.2,0l-0.2,0
		l-0.2,0l-0.2,0l-0.2,0l-0.2,0l-0.2,0l-0.2,0l-0.2,0l-0.2,0l-0.2,0l-0.2,0l-0.2,0l-0.2,0l-0.2,0l-0.2,0.1l-0.2,0.1l-0.2,0.1
		l-0.2,0.1l-0.2,0.1l-0.2,0.1l-0.2,0.1l-0.3,0.1l-0.2,0.1l-0.3,0.1l-0.3,0.1l-0.3,0.1l-0.3,0.1l-0.3,0.1l-0.3,0.1l-0.3,0.1l-0.3,0.1
		l-0.3,0.1l-0.3,0.1l-0.3,0.1l-0.3,0.1l-0.3,0.1l-0.3,0.1l-0.3,0.1l-0.3,0.1l-0.3,0.1l-0.3,0.1l-0.3,0.1l-0.3,0.1l-0.3,0.1l-0.3,0.1
		l-0.3,0.1l-0.3,0.1l-0.3,0.1l-0.3,0.1l-0.3,0.1l-0.3,0.1l-0.6,0.2l-0.6,0.2l0,0l0,0l-0.1,0.1l-0.1,0.1l-0.2,0.1l-0.2,0.1l-0.2,0.1
		l-0.2,0.1l-0.2,0.1l-0.2,0.1l-0.2,0.1l-0.2,0.1l-0.3,0.1l-0.3,0.2l-0.3,0.2l-0.3,0.2l-0.3,0.2l-0.3,0.2l-0.3,0.2l-0.3,0.2l-0.3,0.2
		l-0.3,0.2l-0.3,0.2l-0.3,0.2l-0.3,0.2l-0.3,0.2l-0.3,0.2l-0.3,0.2l-0.3,0.2l-0.3,0.2l-0.3,0.2l-0.3,0.2l-0.3,0.2l-0.3,0.3l-0.3,0.2
		l-0.3,0.2l-0.3,0.3l-0.3,0.3l-0.3,0.2l-0.3,0.2l-0.3,0.3l-0.1,0.1l-0.1,0.1l-0.1,0.1l-0.1,0.1l-0.1,0.1l-0.1,0.1l-0.1,0.1l-0.1,0.1
		l-0.1,0.1l-0.1,0.1l-0.1,0.1l-0.1,0.1l-0.1,0.1l-0.1,0.1l-0.1,0.1l-0.1,0.1l-0.1,0.1l-0.1,0.1l-0.1,0.1l-0.1,0.1l-0.1,0.1l-0.1,0.1
		l-0.1,0.1l-0.1,0.1l-0.1,0.1l0,0.1l-0.1,0.1l0,0.1l0,0.1l0,0.1l0,0.1l0,0.1l0,0l0,0.1l0,0l0,0l0,0l0,0l0,0l-0.1,0.3l-0.1,0.4
		l-0.1,0.4l-0.1,0.4l-0.2,0.3l-0.2,0.3l-0.2,0.3l-0.2,0.3l-0.2,0.3l-0.2,0.3l-0.3,0.3l-0.3,0.3l-0.3,0.2l-0.3,0.2l-0.3,0.2l-0.3,0.2
		l-0.3,0.2l-0.3,0.1l-0.3,0.1l-0.4,0.1l-0.4,0.1l-0.4,0.1l-0.4,0l-0.4,0l-0.4,0l-0.4,0l-0.4,0l-0.4-0.1l-0.4-0.1l-0.4-0.1l-0.4-0.1
		l-0.4-0.1l-0.3-0.2l-0.3-0.2l-0.3-0.2l-0.3-0.2l-0.3-0.2l-0.3-0.2l-0.3-0.3l-0.3-0.3l-0.2-0.3l-0.2-0.3l-0.2-0.3l-0.2-0.3l-0.2-0.3
		l-0.1-0.3l-0.1-0.4l-0.1-0.4l-0.1-0.4l-0.1-0.4l0-0.4l0-0.4l0-0.4l0-0.4l0-0.4l0.1-0.4l0-0.2l0.1-0.3l0.1-0.3l0.1-0.3l0.1-0.3
		l0.1-0.3l0.1-0.3l0.1-0.3l0.1-0.3l0.1-0.3l0.1-0.2l0.1-0.2l0.1-0.2l0.1-0.2l0.1-0.2l0.1-0.2l0.1-0.2l0.1-0.2l0.1-0.2l0.1-0.2
		l0.1-0.2l0.1-0.2l0.1-0.2l0.1-0.2l0.1-0.2l0.1-0.2l0.1-0.2l0.1-0.2l0.1-0.2l0.1-0.2l0.1-0.2l0.2-0.2l0.1-0.2l0.2-0.2l0.2-0.2
		l0.2-0.2l0.2-0.2l0.2-0.2l0.2-0.2l0.2-0.2l0.2-0.2l0.2-0.2l0.2-0.2l0.2-0.2l0.2-0.2l0.2-0.2l0.2-0.2l0.2-0.2l0.3-0.3l0.4-0.3
		l0.4-0.3l0.4-0.3l0.4-0.3l0.4-0.3l0.4-0.3l0.4-0.3l0.4-0.3l0.4-0.3l0.4-0.3l0.4-0.3l0.4-0.3l0.4-0.3l0.4-0.3l0.4-0.3l0.4-0.3
		l0.4-0.3l0.4-0.3l0.4-0.3l0.4-0.3l0.4-0.3l0.4-0.3l0.4-0.2l0.4-0.2l0.4-0.2l0.4-0.2l0.4-0.2l0.4-0.2l0.4-0.2l0.4-0.2l0.4-0.2
		l0.3-0.2l0.3-0.2l0.3-0.2l0.3-0.2l0.3-0.2l0.3-0.2l0.3-0.1l0.2-0.1l0.2-0.1l0.7-0.3l0.7-0.3l0.4-0.1l0.3-0.1l0.3-0.1l0.3-0.1
		l0.3-0.1l0.3-0.1l0.3-0.1l0.3-0.1l0.3-0.1l0.3-0.1l0.3-0.1l0.3-0.1l0.3-0.1l0.3-0.1l0.3-0.1l0.3-0.1l0.3-0.1l0.3-0.1l0.3-0.1
		l0.3-0.1l0.3-0.1l0.3-0.1l0.3-0.1l0.3-0.1l0.3-0.1l0.3-0.1l0.3-0.1l0.3-0.1l0.3-0.1l0.3-0.1l0.3-0.1l0.3-0.1l0.3-0.1l0.3-0.1
		l0.3-0.1l0.3-0.1l0.3-0.1l0.3-0.1l0.3-0.1l0.3-0.1l0.3-0.1l0.3-0.1l0.3-0.1l0.3-0.1l0.3-0.1l0.3,0l0.3,0l0.3,0l0.3,0l0.3,0l0.3,0
		l0.3,0l0.3,0l0.3,0l0.3,0l0.3,0l0.3,0l0.3,0l0.3,0l0.3,0l0.3,0l0.3,0l0.3,0l0.3,0l0.3,0l0.3,0l0.3,0l0.3,0l0.3,0l0.3,0l0.3,0h0.3
		l0.3,0L1169.5,312.7L1169.5,312.7z"/>
	<path class="st3" d="M927,190c0,0,23.4-24.4,32.2,35.1"/>
	<path class="st3" d="M1007.9,184.1c0,0-22.4-23.4-30.2,38"/>
	<path class="st3" d="M946.8,164.4c0,0,26.3-16.8,21.5,51.1"/>
	<path class="st4" d="M867.9,766.1c0,0,2.7-49.9,29-64.8c26.2-14.8,44,4.3,29.7,22.3c-14.3,18-26.2,36.2-23,54.4
		C906.8,796.3,865.9,797.5,867.9,766.1L867.9,766.1z"/>
	<path class="st4" d="M1093.7,771.9c0,0-26.4-42.4-13.5-69.6c13-27.2,38.5-21.7,37.1,1.2c-1.3,23-0.6,44.7,12.5,57.8
		C1142.9,774.3,1110.1,798.8,1093.7,771.9L1093.7,771.9z"/>
	<path class="st1" d="M822.5,297.3c-5.2,2-10.9-1.3-14.9-4.4c-48.7-37.8,17.8-52.9,32.2-22.9"/>
	<path class="st2" d="M811.6,247.3l0.4,0l0.4,0l0.4,0l0.4,0l0.4,0l0.4,0l0.4,0l0.4,0l0.4,0l0.4,0l0.4,0l0.4,0.1l0.4,0l0.4,0.1
		l0.4,0.1l0.4,0.1l0.4,0.1l0.4,0.1l0.4,0.1l0.4,0.1l0.4,0.1l0.4,0.1l0.4,0.1l0.4,0.1l0.4,0.1l0.4,0.1l0.4,0.1l0.4,0.1l0.4,0.1
		l0.4,0.1l0.4,0.1l0.4,0.1l0.4,0.1l0.4,0.1l0.4,0.1l0.4,0.2l0.4,0.2l0.4,0.2l0.4,0.2l0.4,0.2l0.4,0.2l0.4,0.2l0.4,0.2l0.4,0.2
		l0.4,0.2l0.4,0.2l0.4,0.2l0.4,0.2l0.4,0.2l0.4,0.2l0.4,0.2l0.4,0.2l0.4,0.2l0.4,0.2l0.4,0.2l0.4,0.3l0.4,0.3l0.4,0.3l0.4,0.3
		l0.4,0.3l0.4,0.3l0.4,0.3l0.3,0.3l0.2,0.1l0.2,0.1l0.2,0.1l0.2,0.1l0.2,0.1l0.2,0.2l0.2,0.1l0.2,0.2l0.2,0.2l0.2,0.2l0.2,0.2
		l0.2,0.2l0.2,0.2l0.2,0.2l0.2,0.2l0.2,0.2l0.2,0.2l0.2,0.2l0.2,0.2l0.2,0.2l0.2,0.2l0.2,0.2l0.2,0.2l0.2,0.2l0.1,0.2l0.2,0.2
		l0.1,0.2l0.1,0.2l0.1,0.2l0.1,0.2l0.1,0.2l0.1,0.2l0.1,0.2l0.1,0.2l0.1,0.2l0.1,0.2l0.1,0.2l0.1,0.2l0.1,0.2l0.1,0.2l0.1,0.2
		l0.1,0.2l0.1,0.2l0.1,0.2l0.1,0.2l0.1,0.2l0.1,0.2l0.1,0.2l0.1,0.2l0.1,0.2l0.1,0.2l0.1,0.2l0.1,0.2l0.1,0.2l0.1,0.2l0.1,0.2
		l0.1,0.2l0.1,0.2l0.1,0.2l0.1,0.2l0.1,0.3l0.1,0.3l0.1,0.3l0.1,0.3l0.1,0.4l0.1,0.4l0,0.4l0,0.4l0,0.4l0,0.4l0,0.4l-0.1,0.4
		l-0.1,0.4l-0.1,0.4l-0.1,0.3l-0.1,0.3l-0.2,0.3l-0.2,0.3l-0.2,0.3l-0.2,0.3l-0.2,0.3l-0.2,0.3l-0.3,0.3l-0.3,0.2l-0.3,0.2l-0.3,0.2
		l-0.3,0.2l-0.3,0.2l-0.3,0.2l-0.3,0.1l-0.3,0.1l-0.3,0.1l-0.4,0.1l-0.4,0.1l-0.4,0.1l-0.4,0l-0.4,0h-0.4l-0.4,0l-0.4,0l-0.4-0.1
		l-0.4-0.1l-0.4-0.1l-0.3-0.1l-0.3-0.1l-0.3-0.2l-0.3-0.2l-0.3-0.2l-0.3-0.2l-0.3-0.2l-0.3-0.2l-0.3-0.3l-0.2-0.3l-0.2-0.3l-0.2-0.3
		l-0.2-0.3l-0.2-0.3l-0.2-0.3l-0.1-0.2l-0.1-0.1l-0.1-0.1l-0.1-0.1l-0.1-0.1l-0.1-0.1l-0.1-0.1l-0.1-0.1l-0.1-0.1l-0.1-0.1l-0.1-0.1
		l-0.1-0.1l-0.1-0.1l-0.1-0.1l-0.1-0.1l-0.1-0.1l-0.1-0.1l-0.1-0.1l-0.1-0.1l-0.1-0.1l-0.1-0.1l-0.1-0.1l-0.1-0.1L832,270l-0.1-0.1
		l-0.1-0.1l-0.1-0.1l-0.1-0.1l-0.1-0.1l-0.1-0.1l-0.1-0.1l-0.1-0.1l-0.1-0.1l-0.1-0.1l-0.1-0.1l-0.1-0.1l-0.1-0.1l-0.1-0.1l-0.1-0.1
		l-0.1-0.1l-0.1-0.1l-0.1-0.1l-0.1-0.1l-0.1-0.1l-0.1-0.1l-0.1-0.1l-0.1-0.1l-0.1-0.1l-0.1-0.1l-0.1-0.1l-0.1-0.1l-0.1-0.1l-0.1-0.1
		l-0.1-0.1l-0.1-0.1l-0.1-0.1l-0.1-0.1l-0.1-0.1l-0.1-0.1l-0.1-0.1l-0.2-0.2l-0.2-0.2l-0.2-0.2l-0.2-0.2l-0.2-0.2l-0.2-0.2l-0.2-0.2
		l-0.2-0.2l-0.2-0.2l-0.2-0.1l-0.2-0.1l-0.2-0.1l-0.2-0.1l-0.3-0.1l-0.3-0.1l-0.3-0.1l-0.3-0.1l-0.3-0.1l-0.3-0.1l-0.3-0.1l-0.3-0.1
		l-0.3-0.1L823,263l-0.3-0.1l-0.3-0.1l-0.3-0.1l-0.3-0.1l-0.3-0.1l-0.3-0.1l-0.3-0.1l-0.3-0.1l-0.3-0.1l-0.3-0.1L820,262l-0.3-0.1
		l-0.3-0.1l-0.3-0.1l-0.3-0.1l-0.3-0.1l-0.3-0.1l-0.3-0.1l-0.3-0.1l-0.3-0.1l-0.3-0.1l-0.3-0.1l-0.3-0.1l-0.3,0l-0.3,0l-0.3,0
		l-0.3,0l-0.3,0l-0.3,0l-0.3,0l-0.3,0l-0.3,0l-0.3,0l-0.3,0l-0.3,0l-0.3,0l-0.3,0l-0.3,0l-0.3,0l-0.3,0h-0.3l-0.3,0h-0.3l-0.3,0
		l-0.3,0l-0.3,0l-0.3,0l-0.3,0l-0.3,0l-0.3,0l-0.3,0l-0.3,0l-0.3,0l-0.3,0l-0.3,0l-0.3,0l-0.3,0l-0.3,0l-0.3,0l-0.3,0l-0.3,0.1
		l-0.3,0.1l-0.2,0.1l-0.3,0.1l-0.2,0.1l-0.2,0.1l-0.2,0.1l-0.2,0.1l-0.2,0.1l-0.2,0.1l-0.2,0.1l-0.2,0.1l-0.2,0.1l-0.2,0.1l-0.2,0.1
		l-0.2,0.1l-0.2,0.1l-0.2,0.1l-0.2,0.1l-0.2,0.1l-0.2,0.1l-0.2,0.1l-0.2,0.1l-0.2,0.1l-0.2,0.1l-0.2,0.1l-0.2,0.1l-0.2,0.1l-0.2,0.1
		l-0.1,0.1l-0.1,0.1l-0.1,0.1l-0.1,0.1l-0.1,0.1l-0.1,0.1l-0.1,0.1l0,0l-0.1,0l-0.1,0l-0.1,0.1l-0.1,0l-0.1,0l-0.1,0.1l-0.1,0
		l-0.1,0l0,0.1l-0.1,0l0,0l0,0.1l0,0l0,0l0,0.1l0,0l0,0l0,0l0,0.1l0,0l0,0l0,0l0,0l0,0.1l0,0l0,0l0,0l0,0l0,0l0,0l0,0l0,0l0,0l0,0
		l0,0l0,0l0,0l0,0l0,0l0,0l0,0l0,0l0,0l0,0l0,0l0,0l0,0l0,0l0,0l0,0l0,0l0,0.1l0,0l0,0l0,0l0,0.1l0,0l0,0.1l0,0l0,0.1l0,0.1l0,0
		l0,0.1l0,0.1l0,0.1l0,0.1l0,0.1l0,0.1l0,0.1v0.1l0,0.1l0,0.1l0,0.1l0,0.1v0.1l0,0.1v0.1v0.1v0.1v0.1v0.1v0.1v0.1l0,0.1v0.1l0,0.1
		l0,0.1l0,0.1l0,0.1l0,0.1l0,0.1l0,0.1l0,0.1l0,0.1l0,0.1l0,0.1l0,0.1l0,0.1l0,0.1l0,0.1l0,0.1l0,0.1l0,0.1l0,0.1l0,0.1l0,0.1l0,0.1
		l0,0.1l0,0.1l0,0.1l0,0.1l0,0.1l0,0.1l0,0.1l0,0.1l0,0.1l0,0.1l0,0.1l0,0.1l0,0.1l0,0.1l0.1,0.1l0.1,0.1l0.1,0.1l0.1,0.1l0.1,0.1
		l0.1,0.1l0.1,0.1l0.1,0.1l0.1,0.1l0.1,0.1l0.1,0.1l0.1,0.1l0.1,0.1l0.1,0.1l0.1,0.1l0.1,0.1l0.1,0.1l0.1,0.1l0.1,0.1l0.1,0.1
		l0.1,0.1l0.1,0.1l0.1,0.1l0.1,0.1l0.1,0.1l0.1,0.1l0.1,0.1l0.1,0.2l0.1,0.1l0.1,0.2l0.1,0.1l0.1,0.2l0.1,0.2l0.1,0.2l0.1,0.2
		l0.1,0.2l0.1,0.2l0.1,0.2l0.1,0.2l0.1,0.2l0.1,0.2l0.1,0.2l0.1,0.2l0.1,0.2l0.1,0.2l0.1,0.2l0.1,0.2l0.1,0.2l0.2,0.2l0.2,0.2
		l0.2,0.2l0.2,0.2l0.2,0.2l0.2,0.2l0.2,0.2l0.2,0.2l0.2,0.2l0.2,0.2l0.2,0.2l0.2,0.2l0.2,0.2l0.2,0.2l0.2,0.2l0.2,0.2l0.2,0.2
		l0.2,0.2l0.2,0.2l0.2,0.2l0.2,0.2l0.2,0.2l0.2,0.2l0.2,0.2l0.2,0.2l0.2,0.2l0.2,0.2l0.2,0.2l0.2,0.2l0.2,0.2l0.2,0.2l0.2,0.2
		l0.2,0.2l0.2,0.2l0.2,0.2l0.2,0.2l0.2,0.2l0.2,0.2l0.5,0.4l0.5,0.4l0.5,0.4l0.2,0.1l0.2,0.1l0.2,0.1l0.2,0.1l0.2,0.1l0.2,0.1
		l0.2,0.1l0.2,0.1l0.2,0.1l0.2,0.1l0.2,0.1l0.2,0.1l0.2,0.1l0.2,0.1l0.2,0.1l0.2,0.1l0.2,0.1l0.2,0.1l0.2,0.1l0.2,0.1l0.2,0.1
		l0.2,0.1l0.2,0.1l0.2,0.1l0.2,0.1l0.2,0.1l0.2,0.1l0.2,0.1l0.2,0.1l0.2,0.1l0.1,0.1l0.1,0.1l0.1,0.1l0.1,0.1l0.1,0l0.1,0l0.1,0
		l0.1,0l0.1,0l0.1,0l0.1,0l0,0l0.1,0l0.1,0l0.1,0l0.1,0l0.1,0l0.1,0l0.1,0l0.1,0l0,0l0.1,0l0,0h0l0,0h0h0h0l0,0h0h0h0l0,0h0h0l0,0h0
		h0l0,0l0,0h0l0,0l0,0l0,0l0,0l0,0l0,0l0,0l0,0l0,0l0,0l0,0l0,0l0,0l0,0l0,0l0.1,0l0.3-0.1l0.3-0.1l0.4-0.1l0.4-0.1l0.4,0l0.4,0h0.4
		l0.4,0l0.4,0l0.4,0.1l0.4,0.1l0.4,0.1l0.3,0.1l0.3,0.1l0.3,0.2l0.3,0.2l0.3,0.2l0.3,0.2l0.3,0.2l0.3,0.2l0.3,0.2l0.2,0.3l0.2,0.3
		l0.2,0.3l0.2,0.3l0.2,0.3l0.2,0.3l0.1,0.3l0.1,0.3l0.1,0.3l0.1,0.3l0.1,0.4l0.1,0.4l0,0.4l0,0.4v0.4l0,0.4l0,0.4l-0.1,0.4l-0.1,0.4
		l-0.1,0.4l-0.1,0.3l-0.1,0.3l-0.1,0.3l-0.2,0.3l-0.2,0.3l-0.2,0.3l-0.2,0.3l-0.2,0.3l-0.2,0.3l-0.3,0.2l-0.3,0.2l-0.3,0.2l-0.3,0.2
		l-0.3,0.2l-0.3,0.2l-0.3,0.1l-0.3,0.1l-0.2,0.1l-0.2,0.1l-0.2,0.1l-0.2,0.1l-0.2,0.1l-0.2,0.1l-0.2,0.1l-0.2,0.1l-0.2,0l-0.2,0
		l-0.2,0l-0.2,0l-0.2,0l-0.2,0l-0.2,0l-0.2,0l-0.2,0l-0.2,0l-0.2,0l-0.2,0l-0.2,0l-0.2,0l-0.2,0l-0.2,0l-0.2,0l-0.2,0h-0.2h-0.2
		l-0.2,0l-0.2,0l-0.2,0l-0.2,0l-0.2,0l-0.2,0l-0.2,0l-0.2,0l-0.2,0l-0.2,0l-0.2,0l-0.2,0l-0.2,0l-0.2,0l-0.2,0l-0.2,0l-0.2,0l-0.2,0
		l-0.4-0.1l-0.4-0.1l-0.4-0.1l-0.4-0.1l-0.4-0.1l-0.3-0.1l-0.3-0.1l-0.3-0.1l-0.3-0.1l-0.3-0.1l-0.3-0.1l-0.3-0.1l-0.3-0.1l-0.3-0.1
		l-0.3-0.1l-0.3-0.1l-0.3-0.1l-0.3-0.1l-0.3-0.2l-0.3-0.2l-0.3-0.2l-0.3-0.2l-0.3-0.2l-0.3-0.2l-0.3-0.2l-0.3-0.2l-0.3-0.2l-0.3-0.2
		l-0.3-0.2l-0.3-0.2l-0.3-0.2l-0.3-0.2l-0.2-0.2l-0.2-0.2l-0.2-0.2l-0.2-0.2l-0.2-0.2l-0.2-0.2l-0.2-0.2l-0.2-0.2l-0.2-0.2l-0.6-0.5
		l-0.6-0.5l-0.6-0.5l-0.3-0.2l-0.3-0.2l-0.3-0.2l-0.3-0.2l-0.3-0.2l-0.3-0.2l-0.3-0.2l-0.3-0.2l-0.3-0.2l-0.3-0.2l-0.3-0.2l-0.3-0.2
		l-0.3-0.2l-0.3-0.2l-0.3-0.2l-0.2-0.2l-0.3-0.2l-0.2-0.2l-0.2-0.2l-0.2-0.2l-0.2-0.2l-0.2-0.2l-0.2-0.2l-0.2-0.2l-0.2-0.2l-0.2-0.2
		l-0.2-0.2l-0.2-0.2l-0.2-0.2l-0.2-0.2l-0.2-0.2l-0.2-0.2l-0.2-0.2l-0.2-0.2l-0.2-0.2l-0.2-0.2l-0.2-0.2l-0.2-0.2l-0.2-0.2l-0.2-0.2
		l-0.2-0.2l-0.2-0.2l-0.2-0.2l-0.2-0.2l-0.2-0.2l-0.2-0.2l-0.2-0.2l-0.2-0.2l-0.2-0.2l-0.2-0.2l-0.2-0.2l-0.2-0.2l-0.2-0.2l-0.2-0.2
		l-0.2-0.2l-0.2-0.2l-0.2-0.2l-0.2-0.2l-0.1-0.2l-0.2-0.2l-0.1-0.2l-0.1-0.2l-0.1-0.2l-0.1-0.2l-0.1-0.2l-0.1-0.2l-0.1-0.2l-0.1-0.2
		l-0.1-0.2l-0.1-0.2l-0.1-0.2l-0.1-0.2l-0.1-0.2l-0.1-0.2l-0.1-0.2l-0.1-0.2l-0.1-0.2l-0.1-0.2l-0.1-0.2l-0.1-0.2l-0.1-0.2l-0.1-0.2
		l-0.1-0.2l-0.1-0.2l-0.1-0.2l-0.1-0.2l-0.1-0.2l-0.1-0.2l-0.1-0.2l-0.1-0.2l-0.1-0.2l-0.1-0.2l-0.1-0.2l-0.1-0.2l-0.1-0.2l-0.1-0.2
		l-0.1-0.2l-0.1-0.2l-0.1-0.2l-0.1-0.2l-0.1-0.2l-0.1-0.2l-0.1-0.2l-0.1-0.2l-0.1-0.2l-0.1-0.2l-0.1-0.2l0-0.2l0-0.2l0-0.2l0-0.2
		l0-0.2l0-0.2l0-0.2l0-0.2l0-0.2l0-0.2l0-0.2l0-0.2l0-0.2l0-0.2l0-0.2l0-0.2l0-0.2l0-0.2l0-0.2v-0.2v-0.2v-0.2l0-0.2l0-0.2l0-0.2
		l0-0.2l0-0.2l0-0.2l0-0.2l0-0.2l0-0.2l0-0.2l0-0.2l0-0.2l0-0.2l0-0.2l0-0.2l0-0.2l0-0.2l0-0.2l0-0.2l0.1-0.2l0.1-0.2l0.1-0.2
		l0.1-0.2l0.1-0.2l0.1-0.2l0.1-0.2l0.1-0.2l0.1-0.2l0.1-0.2l0.1-0.2l0.1-0.2l0.1-0.2l0.1-0.2l0.1-0.2l0.1-0.2l0.1-0.2l0.1-0.2
		l0.1-0.2l0.1-0.2l0.1-0.2l0.1-0.2l0.1-0.2l0.1-0.2l0.1-0.2l0.1-0.2l0.1-0.2l0.1-0.2l0.1-0.2l0.1-0.2l0.1-0.2l0.1-0.2l0.1-0.2
		l0.1-0.2l0.1-0.2l0.1-0.2l0.1-0.2l0.1-0.2l0.1-0.2l0.1-0.2l0.1-0.1l0.1-0.2l0.1-0.1l0.1-0.1l0.1-0.1l0.1-0.1l0.1-0.1l0.1-0.1
		l0.1-0.1l0.1-0.1l0.1-0.1l0.1-0.1l0.1-0.1l0.1-0.1l0.1-0.1l0.1-0.1l0.1-0.1l0.1-0.1l0.2-0.1l0.2-0.1l0.3-0.2l0.3-0.2l0.3-0.2
		l0.3-0.2l0.3-0.2l0.3-0.2l0.3-0.2l0.3-0.2l0.3-0.2l0.3-0.2l0.3-0.2l0.3-0.2l0.3-0.2l0.4-0.2l0.4-0.2l0.4-0.2l0.4-0.2l0.4-0.2
		l0.4-0.2l0.4-0.1l0.4-0.1l0.4-0.1l0.4-0.1l0.4-0.1l0.4-0.1l0.4-0.1l0.4-0.1l0.4-0.1l0.4-0.1l0.4-0.1l0.4-0.1l0.4-0.1l0.4-0.1
		l0.4-0.1l0.4-0.1l0.4-0.1l0.4-0.1l0.4-0.1l0.4-0.1l0.4-0.1l0.4-0.1l0.4-0.1l0.4,0l0.4,0l0.4,0l0.4,0l0.4,0l0.4,0l0.4,0l0.4,0l0.4,0
		l0.4,0l0.4,0l0.4,0l0.4,0L811.6,247.3L811.6,247.3z"/>
	<path class="st1" d="M825.7,695c0,0-25.3-49.7-20.5-92.4c15-133.5-24.3-159.7-9-241.2c5.3-28.3,15.4-60.5,32.6-83.9
		c37.7-51.5,110.3-78.2,173.4-66.1c25.3,4.8,48.1,15.8,70.7,27.8c78.6,41.7,94.9,129.8,84.7,204.1c-4.5,32.9-32.8,84.1-28.6,117
		c8.6,68.7,6.2,105.9-15.2,150.2c-18.3,37.8-89.4,66.2-167.2,58.1C933.2,767.3,853.9,753.4,825.7,695L825.7,695z"/>
	<g>
		<defs>
			<path id="SVGID_1_" d="M825.7,695c0,0-25.3-49.7-20.5-92.4c15-133.5-24.3-159.7-9-241.2c5.3-28.3,15.4-60.5,32.6-83.9
				c37.7-51.5,110.3-78.2,173.4-66.1c25.3,4.8,48.1,15.8,70.7,27.8c78.6,41.7,94.9,129.8,84.7,204.1c-4.5,32.9-32.8,84.1-28.6,117
				c8.6,68.7,6.2,105.9-15.2,150.2c-18.3,37.8-89.4,66.2-167.2,58.1C933.2,767.3,853.9,753.4,825.7,695L825.7,695z"/>
		</defs>
		<clipPath id="SVGID_00000005954599033520499030000000265178669746820248_">
			<use xlink:href="#SVGID_1_"  style="overflow:visible;"/>
		</clipPath>
		<g style="clip-path:url(#SVGID_00000005954599033520499030000000265178669746820248_);">
			<path class="st6" d="M1106.5,271.6c0,0,26.1,63.6,10.2,115.1c-15.9,51.5-43.9,123.4-39.4,195.3c4.5,71.9-3.2,118.3-19.1,138.7
				c-32.1,41.1-119.6,47.1-141.9,40.7c-22.3-6.4,87.8,22.9,150.8-2.5c63-25.4,71.9-132.3,63.6-199.1c-8.3-66.8,45.2-85.9,27.4-201
				C1129.4,291.3,1128.7,295.1,1106.5,271.6L1106.5,271.6z"/>
			<path class="st6" d="M1001.4,370.3c0,0,7.8,39.1,54.4,36.8c46.6-2.3,49.8-49.8,49.8-49.8L1001.4,370.3z"/>
			<path class="st6" d="M802.2,350.4c0,0,7.8,39.1,54.4,36.8c46.6-2.3,49.8-49.8,49.8-49.8L802.2,350.4z"/>
		</g>
	</g>
	<path class="st2" d="M972.1,201.9h0.8l0.8,0l0.8,0l0.8,0l0.8,0l0.8,0l0.8,0l0.8,0l0.8,0l0.8,0l0.8,0l0.8,0l0.8,0l0.8,0.1l0.8,0.1
		l0.8,0.1l0.8,0.1l0.8,0.1l0.8,0.1l0.8,0.1l0.8,0.1l0.8,0.1l0.8,0.1l0.8,0.1l0.8,0.1l0.8,0.1l0.8,0.1l0.8,0.1l0.8,0.1l0.8,0.1
		l0.8,0.1l0.8,0.1l0.8,0.1l0.8,0.1l0.8,0.1l0.8,0.1l0.8,0.1l0.8,0.1l0.8,0.1l0.8,0.1l0.6,0.1l0.6,0.1l0.6,0.1l0.6,0.1l0.6,0.1
		l0.6,0.1l0.6,0.1l0.6,0.1l0.6,0.1l0.6,0.1l0.6,0.1l0.6,0.1l0.6,0.1l0.6,0.1l0.6,0.1l0.6,0.1l0.6,0.2l0.6,0.2l0.6,0.2l0.6,0.2
		l0.6,0.2l0.6,0.2l0.6,0.2l0.6,0.2l0.6,0.2l0.6,0.2l0.6,0.2l0.6,0.2l0.6,0.2l0.6,0.2l0.6,0.2l0.6,0.2l0.6,0.2l0.6,0.2l0.6,0.2
		l0.6,0.2l0.6,0.2l0.6,0.2l0.6,0.2l0.6,0.2l0.6,0.2l0.6,0.2l0.6,0.2l0.6,0.2l0.6,0.2l0.6,0.2l0.6,0.2l0.6,0.2l0.6,0.2l0.6,0.2
		l0.6,0.2l0.6,0.2l0.6,0.2l0.6,0.2l0.6,0.2l0.6,0.2l0.6,0.2l0.6,0.2l0.6,0.2l0.6,0.2l0.6,0.2l0.6,0.2l0.6,0.2l0.6,0.2l0.6,0.2
		l0.6,0.2l0.6,0.2l0.6,0.2l0.6,0.2l0.6,0.2l0.6,0.2l0.6,0.2l0.6,0.2l0.6,0.2l0.6,0.2l0.6,0.3l1.1,0.5l1.1,0.5l1.1,0.5l1.1,0.5
		l1.1,0.5l1.1,0.5l1.1,0.5l1.1,0.5l1.1,0.5l1.1,0.5l1.1,0.5l1.1,0.5l1.1,0.5l1.1,0.5l1.1,0.5l1.1,0.5l1.1,0.6l1.1,0.6l1.1,0.6
		l1.1,0.6l1.1,0.6l1.1,0.6l1.1,0.6l1.1,0.6l1.1,0.6l1.1,0.6l0.5,0.3l0.5,0.3l0.5,0.3l0.5,0.3l0.5,0.3l0.5,0.3l0.5,0.3l0.5,0.3
		l0.5,0.3l0.5,0.3l0.5,0.3l0.5,0.3l0.5,0.3l0.5,0.3l0.5,0.3l0.5,0.3l0.5,0.3l0.5,0.3l0.4,0.3l0.4,0.3l0.4,0.3l0.4,0.3l0.4,0.3
		l0.4,0.3l0.4,0.3l0.4,0.3l0.4,0.3l0.4,0.3l0.4,0.3l0.4,0.3l0.4,0.3l0.4,0.3l0.4,0.3l0.4,0.3l0.4,0.3l0.4,0.3l0.4,0.3l0.4,0.3
		l0.4,0.3l0.4,0.3l0.4,0.3l0.4,0.3l0.4,0.3l0.4,0.3l0.4,0.3l0.4,0.3l0.4,0.3l0.4,0.3l0.4,0.3l0.4,0.3l0.4,0.3l0.4,0.3l0.4,0.3
		l0.4,0.3l0.4,0.3l0.4,0.3l0.4,0.3l0.4,0.3l0.4,0.3l0.4,0.3l0.4,0.3l0.4,0.3l0.4,0.3l0.4,0.3l0.4,0.3l0.4,0.3l0.4,0.3l0.4,0.3
		l0.4,0.3l0.4,0.3l0.4,0.3l0.4,0.3l0.4,0.3l0.4,0.3l0.4,0.3l0.4,0.3l0.4,0.3l0.4,0.3l0.4,0.3l0.4,0.3l0.4,0.3l0.4,0.3l0.4,0.3
		l0.4,0.3l0.4,0.3l0.4,0.3l0.4,0.3l0.4,0.3l0.4,0.3l0.4,0.3l0.4,0.3l0.4,0.3l0.3,0.3l0.4,0.3l0.3,0.3l0.3,0.3l0.3,0.4l0.3,0.3
		l0.3,0.4l0.3,0.3l0.3,0.4l0.3,0.4l0.3,0.4l0.3,0.4l0.3,0.4l0.3,0.4l0.3,0.4l0.3,0.4l0.3,0.4l0.3,0.4l0.3,0.4l0.3,0.4l0.3,0.4
		l0.3,0.4l0.3,0.4l0.3,0.4l0.3,0.4l0.3,0.4l0.3,0.4l0.3,0.4l0.3,0.4l0.3,0.4l0.3,0.4l0.3,0.4l0.3,0.4l0.3,0.4l0.3,0.4l0.3,0.4
		l0.3,0.4l0.3,0.4l0.3,0.4l0.3,0.4l0.3,0.4l0.3,0.4l0.3,0.4l0.3,0.4l0.3,0.4l0.3,0.4l0.3,0.4l0.3,0.4l0.3,0.4l0.3,0.4l0.3,0.4
		l0.3,0.4l0.3,0.4l0.3,0.4l0.3,0.4l0.3,0.4l0.3,0.4l0.3,0.4l0.3,0.4l0.3,0.4l0.3,0.4l0.3,0.4l0.3,0.4l0.3,0.4l0.3,0.4l0.3,0.4
		l0.3,0.4l0.3,0.4l0.3,0.4l0.3,0.4l0.3,0.4l0.3,0.4l0.3,0.4l0.3,0.4l0.3,0.4l0.3,0.4l0.3,0.4l0.3,0.4l0.3,0.4l0.2,0.4l0.3,0.4
		l0.2,0.4l0.2,0.4l0.2,0.4l0.2,0.4l0.2,0.4l0.2,0.4l0.2,0.4l0.2,0.4l0.2,0.4l0.2,0.4l0.2,0.4l0.2,0.4l0.2,0.4l0.2,0.4l0.2,0.4
		l0.2,0.4l0.2,0.4l0.2,0.4l0.2,0.4l0.2,0.4l0.2,0.4l0.2,0.4l0.2,0.4l0.2,0.4l0.2,0.4l0.2,0.4l0.2,0.4l0.4,0.8l0.4,0.8l0.4,0.8
		l0.4,0.8l0.4,0.9l0.4,0.8l0.4,0.9l0.4,0.9l0.4,0.9l0.4,0.9l0.4,0.9l0.4,0.9l0.4,0.9l0.4,0.9l0.4,0.9l0.4,0.9l0.4,0.9l0.4,0.9
		l0.3,0.9l0.3,0.9l0.3,0.9l0.3,0.9l0.3,0.9l0.3,0.9l0.3,0.9l0.3,0.9l0.3,0.9l0.3,0.9l0.3,0.9l0.3,0.9l0.3,0.9l0.3,0.9l0.3,0.9
		l0.3,0.9l0.3,0.9l0.3,0.9l0.3,0.9l0.3,0.9l0.3,0.9l0.3,0.9l0.3,0.9l0.3,0.9l0.2,0.9l0.2,0.9l0.2,0.9l0.2,0.9l0.2,0.9l0.2,0.9
		l0.2,0.9l0.2,0.9l0.2,0.9l0.2,0.9l0.2,0.9l0.2,0.9l0.2,0.9l0.2,0.9l0.2,0.9l0.2,0.9l0.2,0.9l0.2,0.9l0.2,0.9l0.2,0.9l0.2,0.9
		l0.2,0.9l0.2,0.9l0.2,0.9l0.2,0.9l0.1,0.9l0.1,0.9l0.1,0.9l0.1,0.9l0.1,0.9l0.1,0.9l0.1,0.9l0.1,0.9l0.1,0.9l0.1,0.9l0.1,0.9
		l0.1,0.9l0.1,0.9l0.1,0.9l0.1,0.9l0.1,0.9l0.1,0.9l0.1,0.9l0.1,0.9l0.1,0.9l0.1,0.9l0.1,0.9l0.1,0.9l0.1,0.9l0.1,0.9l0.1,0.9
		l0.1,0.9l0.1,0.9l0,0.9l0.1,0.9l0,0.9l0,0.9l0,0.9l0,0.9l0,0.9l0,0.9l0,0.9l0,0.9l0,0.9l0,0.9l0,0.9l0,0.9l0,0.9v0.9l0,0.9l0,0.9
		l0,0.9l0,0.9l0,0.9l0,0.9l0,0.9l0,0.9l0,0.9l0,0.9l0,0.9l0,0.9l0,0.9l0,0.9l0,0.9l0,0.9l0,0.9l0,0.9l-0.1,0.9l-0.1,0.9l-0.1,0.9
		l-0.1,0.9l-0.1,0.9l-0.1,0.9l-0.1,0.9l-0.1,0.9l-0.1,0.9l-0.1,0.9l-0.1,0.9l-0.1,0.9l-0.1,0.9l-0.1,0.9l-0.1,0.9l-0.1,0.9l-0.1,0.9
		l-0.1,0.9l-0.1,0.9l-0.1,0.9l-0.1,0.9l-0.1,0.9l-0.1,0.9l-0.1,0.9l-0.1,0.9l-0.1,0.9l-0.1,0.9l-0.1,0.4l-0.1,0.4l-0.1,0.4l-0.1,0.4
		l-0.1,0.4l-0.1,0.4l-0.1,0.4l-0.1,0.4l-0.1,0.4l-0.1,0.4l-0.1,0.4l-0.1,0.4l-0.1,0.4l-0.1,0.4l-0.1,0.4l-0.1,0.4l-0.1,0.4l-0.1,0.4
		l-0.1,0.4l-0.1,0.4l-0.1,0.4l-0.1,0.4l-0.1,0.4l-0.1,0.4l-0.1,0.4l-0.1,0.4l-0.1,0.4l-0.1,0.4l-0.1,0.4l-0.1,0.5l-0.2,0.9l-0.2,0.9
		l-0.2,0.9l-0.3,0.9l-0.3,0.9l-0.3,0.9l-0.3,0.9l-0.3,0.9l-0.3,0.9l-0.3,0.9l-0.3,0.9l-0.3,0.9l-0.3,0.9l-0.3,0.9l-0.3,0.9l-0.3,0.9
		l-0.3,0.9l-0.3,0.9l-0.3,1l-0.3,1l-0.3,1l-0.3,1l-0.3,1l-0.3,1l-0.3,1l-0.3,1l-0.3,1l-0.7,1.9l-0.7,1.9l-0.7,1.9l-1.4,3.9l-0.7,2
		l-0.7,2l-0.7,2l-0.7,2l-0.7,2l-0.3,1l-0.3,1l-0.3,1l-0.3,1l-0.3,1l-0.3,1l-0.3,1l-0.3,1l-0.3,1l-0.3,1l-0.3,1l-0.3,1l-0.3,1l-0.3,1
		l-0.3,1l-0.3,1l-0.3,1l-0.3,1l-0.3,0.9l-0.3,0.9l-0.3,0.9l-0.3,0.9l-0.3,0.9l-0.3,0.9l-0.2,0.9l-0.2,0.9l-0.2,0.9l-0.2,0.9
		l-0.1,0.5l-0.1,0.5l-0.1,0.5l-0.1,0.5l-0.1,0.5l-0.1,0.5l-0.1,0.4l-0.1,0.5l-0.1,0.4l-0.1,0.4l-0.1,0.4l-0.1,0.4l-0.1,0.4l-0.1,0.4
		l-0.1,0.4l-0.1,0.4l-0.1,0.4l-0.1,0.4l-0.1,0.4l-0.1,0.4l-0.1,0.4l-0.1,0.4l-0.1,0.4l-0.1,0.4l-0.1,0.4l-0.1,0.4l-0.1,0.4l-0.1,0.4
		l-0.1,0.4l-0.1,0.4l-0.1,0.4l-0.1,0.4l-0.1,0.4l-0.1,0.4l-0.1,0.4l-0.1,0.4l0,0.4l0,0.4l0,0.4l0,0.4l0,0.4l0,0.4l0,0.4l0,0.4l0,0.4
		l0,0.4l0,0.4l0,0.4l0,0.4l0,0.4l0,0.4l0,0.4l0,0.4l0,0.4l0,0.4l0,0.4l0,0.4v0.4v0.4v0.4l0,0.4l0,0.4l0,0.4l0,0.4l0,0.4l0,0.4l0,0.4
		l0,0.4l0,0.3l0,0.3l0,0.3l0,0.3l0,0.3l0,0.3l0,0.3l0,0.4l0.2,1.6l0.2,1.6l0.2,1.6l0.2,1.6l0.2,1.6l0.2,1.6l0.2,1.5l0.2,1.5l0.2,1.5
		l0.2,1.5l0.2,1.5l0.2,1.5l0.1,1.5l0.1,1.5l0.1,1.5l0.1,1.5l0.1,1.4l0.1,1.4l0.1,1.4l0.1,1.4l0.1,1.4l0.1,1.4l0.1,1.4l0.1,1.4
		l0.1,1.4l0.1,1.4l0.1,1.4l0.1,1.4l0.1,1.3l0.1,1.3l0.1,1.3l0.1,1.3l0.1,1.3l0.1,1.3l0.1,1.3l0,1.3l0,1.3l0,1.3l0,1.3l0,1.3l0,1.3
		l0,0.6l0,0.6l0,0.6v0.6l0,0.6v0.6v0.6v0.6l0,0.6v0.6l0,0.6l0,0.6l0,0.6l0,0.6l0,0.6l0,0.6l0,0.6l0,0.6l0,0.6l0,0.6l0,0.6l0,0.6
		l0,0.6l0,0.6l0,0.6l0,0.6l0,0.6l0,0.6l0,0.6l0,0.6l0,0.6l0,0.6l0,0.6l0,0.6l0,0.6l0,0.6l0,0.6l0,0.6l0,0.6l0,0.6l0,0.6l0,0.6
		l-0.1,0.6l0,0.6l0,0.6l-0.1,0.6l-0.1,0.6l-0.1,0.6l-0.1,0.6l-0.1,0.6l-0.1,0.6l-0.1,0.6l-0.1,0.6l-0.1,0.6l-0.1,0.6l-0.1,0.6
		l-0.1,0.6l-0.1,0.6l-0.1,0.6l-0.1,0.6l-0.1,0.6l-0.1,0.6l-0.1,0.6l-0.1,0.6l-0.1,0.6l-0.1,0.5l-0.1,0.6l-0.1,0.5l-0.1,0.6l-0.1,0.5
		l-0.1,0.5l-0.1,0.5l-0.1,0.5l-0.1,0.5l-0.1,0.5l-0.1,0.5l-0.1,0.5l-0.1,0.5l-0.1,0.5l-0.1,0.5l-0.1,0.5l-0.1,0.5l-0.1,0.5l-0.1,0.5
		l-0.1,0.5l-0.1,0.5l-0.1,0.5l-0.1,0.5l-0.1,0.5l-0.1,0.5l-0.1,0.5l-0.1,0.5l-0.1,0.5l-0.1,0.5l-0.1,0.5l-0.1,0.5l-0.1,0.5l-0.1,0.5
		l-0.1,0.5l-0.1,0.5l-0.1,0.5l-0.1,0.5l-0.1,0.5l-0.1,0.5l-0.1,0.5l-0.1,0.5l-0.1,0.5l-0.1,0.5l-0.1,0.5l-0.2,0.5l-0.1,0.5l-0.1,0.5
		l-0.2,0.5l-0.2,0.5l-0.2,0.5l-0.2,0.5l-0.2,0.5l-0.2,0.5l-0.2,0.5l-0.2,0.5l-0.2,0.5l-0.2,0.5l-0.2,0.5l-0.2,0.5l-0.2,0.5l-0.2,0.5
		l-0.2,0.5l-0.2,0.5l-0.2,0.5l-0.2,0.5l-0.2,0.5l-0.2,0.5l-0.2,0.5l-0.2,0.5l-0.2,0.5l-0.2,0.5l-0.2,0.5l-0.2,0.5l-0.2,0.5l-0.2,0.5
		l-0.2,0.5l-0.2,0.5l-0.2,0.5l-0.2,0.5l-0.2,0.5l-0.2,0.5l-0.2,0.5l-0.2,0.5l-0.2,0.5l-0.2,0.5l-0.2,0.5l-0.2,0.5l-0.2,0.5l-0.2,0.5
		l-0.2,0.5l-0.2,0.5l-0.2,0.5l-0.2,0.5l-0.2,0.5l-0.2,0.5l-0.2,0.5l-0.2,0.5l-0.2,0.5l-0.2,0.5l-0.2,0.5l-0.2,0.5l-0.2,0.5l-0.2,0.5
		l-0.2,0.5l-0.3,0.5l-0.3,0.5l-0.3,0.5l-0.3,0.5l-0.3,0.5l-0.2,0.5l-0.3,0.5l-0.3,0.5l-0.3,0.5l-0.3,0.5l-0.3,0.5l-0.3,0.5l-0.3,0.5
		l-0.3,0.5l-0.3,0.5l-0.3,0.5l-0.3,0.5l-0.3,0.5l-0.3,0.5l-0.3,0.5l-0.3,0.5l-0.3,0.5l-0.3,0.5l-0.3,0.5l-0.3,0.5l-0.3,0.5l-0.3,0.5
		l-0.3,0.5l-0.4,0.5l-0.4,0.5l-0.4,0.5l-0.4,0.5l-0.4,0.5l-0.4,0.4l-0.4,0.5l-0.4,0.4l-0.4,0.4l-0.4,0.4l-0.4,0.4l-0.4,0.4l-0.4,0.4
		l-0.4,0.4l-0.4,0.4l-0.4,0.4l-0.4,0.4l-0.4,0.4l-0.4,0.4l-0.4,0.4l-0.4,0.4l-0.4,0.4l-0.4,0.4l-0.4,0.4l-0.5,0.4l-0.5,0.4l-0.5,0.4
		l-0.5,0.4l-0.5,0.4l-0.5,0.4l-0.5,0.4l-0.5,0.4l-0.5,0.4l-0.5,0.4l-0.5,0.4l-0.5,0.4l-0.5,0.4l-0.5,0.4l-0.5,0.4l-0.5,0.4l-0.5,0.4
		l-0.5,0.4l-0.5,0.4l-0.5,0.4l-0.5,0.4l-0.5,0.4l-0.5,0.4l-0.5,0.4l-0.5,0.4l-0.6,0.4l-0.6,0.4l-0.6,0.4l-0.6,0.4l-0.6,0.4l-0.6,0.4
		l-0.6,0.4l-0.6,0.4l-0.6,0.4l-0.6,0.4l-0.6,0.4l-0.6,0.4l-0.6,0.4l-0.6,0.3l-0.6,0.4l-0.6,0.3l-0.6,0.3l-0.6,0.3l-0.6,0.3l-0.6,0.3
		l-0.6,0.3l-0.6,0.3l-0.6,0.3l-0.6,0.3l-0.6,0.3l-0.6,0.3l-0.6,0.3l-0.6,0.3l-0.6,0.3l-0.6,0.3l-0.6,0.3l-0.7,0.3l-0.7,0.3l-0.7,0.3
		l-0.7,0.3l-0.7,0.3l-0.7,0.3l-0.7,0.3l-0.7,0.3l-0.7,0.3l-0.7,0.3l-0.7,0.3l-0.7,0.3l-0.7,0.3l-0.7,0.3l-0.7,0.3l-0.7,0.3l-0.7,0.3
		l-0.7,0.3l-0.7,0.3l-0.7,0.3l-0.7,0.3l-0.7,0.3l-0.7,0.3l-0.7,0.3l-0.7,0.3l-0.7,0.3l-0.7,0.3l-0.7,0.3l-0.7,0.3l-0.7,0.3l-0.7,0.2
		l-0.7,0.3l-0.7,0.2l-0.7,0.2l-0.7,0.2l-0.8,0.2l-0.7,0.2l-0.8,0.2l-0.8,0.2l-0.8,0.2l-0.8,0.2l-0.8,0.2l-0.8,0.2l-0.8,0.2l-0.8,0.2
		l-0.8,0.2l-0.8,0.2l-0.8,0.2l-0.8,0.2l-0.8,0.2l-0.8,0.2l-0.8,0.2l-0.8,0.2l-0.8,0.2l-0.8,0.2l-0.8,0.2l-0.8,0.2l-0.8,0.2l-0.8,0.2
		l-0.8,0.2l-0.8,0.2l-0.8,0.2l-0.8,0.2l-0.8,0.2l-0.8,0.2l-0.8,0.2l-0.8,0.2l-0.8,0.2l-0.8,0.2l-0.8,0.2l-0.8,0.2l-0.8,0.1l-0.8,0.1
		l-0.8,0.1l-0.8,0.1l-0.8,0.1l-0.8,0.1l-0.8,0.1l-0.8,0.1l-0.8,0.1l-0.8,0.1l-0.9,0.1l-0.9,0.1l-0.9,0.1l-0.9,0.1l-0.9,0.1l-0.9,0.1
		l-0.9,0.1l-0.9,0.1l-0.9,0.1l-0.9,0.1l-0.9,0.1l-0.9,0.1l-0.9,0.1l-0.9,0.1l-0.9,0.1l-0.9,0.1l-0.9,0.1l-0.9,0.1l-0.9,0.1l-0.9,0.1
		l-0.9,0.1l-0.9,0.1l-0.9,0.1l-0.9,0.1l-0.9,0.1l-0.9,0l-0.9,0l-0.9,0l-0.9,0l-0.9,0l-0.9,0l-0.9,0l-0.9,0l-0.9,0l-0.9,0l-0.9,0
		l-0.9,0l-0.9,0l-0.9,0l-0.9,0l-0.9,0h-0.9h-0.9l-0.9,0l-0.9,0l-0.9,0l-0.9,0l-0.9,0l-0.9,0l-0.9,0l-0.9,0l-0.9,0l-0.9,0l-0.9,0
		l-0.9,0l-0.9,0l-0.9,0l-0.9,0l-0.9-0.1l-0.9-0.1l-0.9-0.1l-0.9-0.1l-0.9-0.1l-0.9-0.1l-0.9-0.1l-0.9-0.1l-0.9-0.1l-0.9-0.1
		l-0.9-0.1l-0.9-0.1l-0.9-0.1l-0.9-0.1l-0.4,0l-0.4,0l-0.4,0l-0.4,0l-0.4-0.1l-0.5-0.1l-0.5-0.1l-0.5-0.1l-0.5-0.1l-0.6-0.1
		l-0.6-0.1l-0.6-0.1l-0.6-0.1l-0.6-0.1l-0.7-0.1l-0.7-0.1l-0.7-0.1l-0.7-0.1l-0.7-0.1l-0.7-0.1l-0.8-0.1l-0.8-0.2l-0.8-0.2l-0.8-0.2
		l-0.8-0.2l-0.8-0.2l-0.9-0.2l-0.9-0.2l-0.9-0.2l-0.9-0.2l-0.9-0.2l-0.9-0.2l-0.9-0.2l-1-0.2l-1-0.3l-1-0.3l-1-0.3l-1-0.3l-1-0.3
		l-0.5-0.1l-0.5-0.1l-0.5-0.1l-0.5-0.1l-0.5-0.2l-0.5-0.2l-0.5-0.2l-0.5-0.2l-0.5-0.2l-0.5-0.2l-0.5-0.2l-0.5-0.2l-0.5-0.2l-0.6-0.2
		l-0.6-0.2l-0.6-0.2l-0.6-0.2l-0.6-0.2l-0.6-0.2l-0.6-0.2l-0.6-0.2l-0.6-0.2l-0.6-0.2l-0.6-0.2l-0.6-0.2l-0.6-0.2l-0.6-0.2l-0.6-0.2
		l-0.6-0.2l-0.6-0.2l-0.6-0.2l-0.6-0.2l-0.6-0.2l-0.6-0.2l-0.6-0.2l-0.6-0.2l-0.6-0.2l-0.6-0.2l-0.6-0.2l-0.6-0.2l-0.6-0.2l-0.6-0.2
		l-0.6-0.2l-0.6-0.3l-0.6-0.2l-0.6-0.3l-0.6-0.3l-0.6-0.3l-0.6-0.3l-0.6-0.3l-0.6-0.3l-0.6-0.3l-0.6-0.3l-0.6-0.3l-0.6-0.3l-0.6-0.3
		l-0.6-0.3l-0.6-0.3l-0.6-0.3l-0.6-0.3l-0.6-0.3l-0.6-0.3l-0.6-0.3l-0.6-0.3l-0.6-0.3l-0.6-0.3l-0.6-0.3l-0.6-0.3l-0.6-0.3l-0.6-0.3
		l-0.6-0.3l-0.6-0.3l-0.6-0.3l-0.6-0.3l-0.6-0.3l-0.6-0.3l-0.6-0.3l-0.6-0.3l-0.6-0.3l-0.6-0.4l-0.6-0.4l-0.6-0.4l-0.6-0.4l-0.6-0.4
		l-0.6-0.4l-0.6-0.4l-0.6-0.4l-0.6-0.4l-0.6-0.4l-0.6-0.4l-0.6-0.4l-0.6-0.4l-0.6-0.4l-0.6-0.4l-0.6-0.4l-0.6-0.4l-0.6-0.4l-0.6-0.4
		l-0.6-0.4l-0.6-0.4l-0.6-0.4l-0.6-0.4l-0.6-0.4l-0.6-0.4l-0.6-0.4l-0.6-0.4l-0.6-0.4l-0.6-0.4l-0.6-0.4l-0.6-0.5l-0.6-0.5l-0.6-0.5
		l-0.6-0.5l-0.6-0.5l-0.6-0.5l-0.6-0.5l-0.6-0.5l-0.6-0.5l-0.6-0.5l-0.6-0.5l-0.6-0.5l-0.6-0.5l-0.6-0.5l-0.6-0.5l-0.6-0.5l-0.5-0.5
		l-0.5-0.5l-0.5-0.5l-0.5-0.5l-0.5-0.5l-0.5-0.5l-0.5-0.5l-0.5-0.5l-0.5-0.5l-0.5-0.6l-0.5-0.6l-0.5-0.6l-0.5-0.6l-0.5-0.6l-0.5-0.6
		l-0.5-0.6l-0.5-0.6l-0.5-0.6l-0.5-0.6l-0.5-0.6l-0.3-0.3l-0.2-0.3l-0.2-0.3l-0.2-0.3l-0.2-0.3l-0.2-0.3l-0.2-0.3l-0.2-0.3l-0.2-0.3
		l-0.2-0.3l-0.2-0.3l-0.2-0.3l-0.2-0.3l-0.2-0.3l-0.2-0.3l-0.2-0.3l-0.2-0.3l-0.2-0.3l-0.2-0.3l-0.2-0.3l-0.2-0.3l-0.2-0.3l-0.2-0.3
		l-0.2-0.3l-0.2-0.3l-0.2-0.3l-0.2-0.3l-0.2-0.3l-0.2-0.3l-0.2-0.3l-0.2-0.3l-0.2-0.3l-0.2-0.3l-0.2-0.3l-0.2-0.3l-0.2-0.3l-0.2-0.3
		l-0.2-0.3l-0.2-0.3l-0.2-0.3l-0.2-0.3l-0.2-0.3L824,706l-0.2-0.3l-0.2-0.3l-0.2-0.3l-0.2-0.3l-0.2-0.3l-0.2-0.3l-0.2-0.3l-0.2-0.3
		l-0.2-0.4l-0.2-0.4l-0.2-0.3l-0.2-0.4l-0.2-0.4l-0.2-0.4l-0.2-0.4l-0.2-0.4l-0.2-0.4l-0.2-0.4l-0.2-0.4l-0.2-0.4l-0.2-0.4l-0.2-0.4
		l-0.2-0.3l-0.1-0.1l-0.2-0.5l-0.2-0.3l-0.2-0.4l-0.2-0.5l-0.3-0.5l-0.3-0.6l-0.3-0.7l-0.3-0.7l-0.4-0.8l-0.4-0.8l-0.4-0.9l-0.4-0.9
		l-0.2-0.5l-0.2-0.5l-0.2-0.5l-0.2-0.5l-0.2-0.5l-0.2-0.6l-0.2-0.6l-0.2-0.6l-0.2-0.6l-0.3-0.6l-0.3-0.6l-0.3-0.6l-0.3-0.6l-0.3-0.7
		l-0.3-0.7l-0.3-0.7l-0.3-0.7l-0.3-0.7l-0.3-0.7l-0.3-0.7l-0.3-0.7l-0.3-0.7l-0.3-0.7L810,675l-0.3-0.8l-0.3-0.8l-0.3-0.8l-0.3-0.8
		l-0.3-0.8l-0.3-0.8l-0.3-0.8l-0.3-0.8l-0.3-0.8l-0.3-0.9l-0.3-0.9l-0.3-0.9l-0.3-0.9l-0.3-0.9l-0.3-0.9l-0.3-0.9l-0.3-0.9l-0.3-0.9
		l-0.3-0.9l-0.3-0.9l-0.3-0.9L804,656l-0.3-0.9l-0.3-1l-0.2-1l-0.2-1l-0.2-1l-0.2-1l-0.2-1l-0.1-0.5l-0.1-0.5l-0.1-0.5l-0.1-0.5
		l-0.1-0.5l-0.1-0.5l-0.1-0.5l-0.1-0.5l-0.1-0.5l-0.1-0.5l-0.1-0.5l-0.1-0.5l-0.1-0.5l-0.1-0.5l-0.1-0.5l-0.1-0.5l-0.1-0.5l-0.1-0.5
		l-0.1-0.5l-0.1-0.5l-0.1-0.5l-0.1-0.5l-0.1-0.5l-0.1-0.5l-0.1-0.5l-0.1-0.5l-0.1-0.5l-0.1-0.5l-0.1-0.5l-0.1-0.5l-0.1-0.5l-0.1-0.5
		l-0.1-0.5l-0.1-0.5l-0.1-0.5l-0.1-0.5l-0.1-0.5l-0.1-0.5l-0.1-0.5l-0.1-0.5l-0.1-0.5l-0.1-0.5l-0.1-0.5l-0.1-0.5l0-0.5l0-0.5l0-0.5
		l0-0.5l0-0.5l0-0.5l0-0.5l0-0.5l0-0.5l0-0.5l0-0.5l0-0.5l0-0.5l0-0.5l0-0.5l0-0.5l0-0.5l0-0.5l0-0.5l0-0.5l0-0.5l0-0.5l0-0.5v-0.5
		v-0.5l0-0.5l0-0.5l0-0.5l0-0.5l0-0.5l0-0.5l0-0.5l0-0.5l0-0.5l0-0.5l0-0.5l0-0.5l0-0.5l0-0.5l0-0.5l0-0.5l0-0.5l0-0.5l0.1-0.5
		l0.1-0.5l0.1-0.5l0.2-1.6l0.2-1.5l0.2-1.5l0.2-1.5l0.1-1.5l0.1-1.5l0.1-1.5l0.1-1.5l0.1-1.5l0.1-1.5l0.1-1.4l0.1-1.4l0.1-1.4
		l0.1-1.4l0.1-1.4l0.1-1.4l0.1-1.4l0.1-1.4l0.1-1.4l0.1-1.4l0.1-1.4l0.1-1.3l0.1-1.3l0.1-1.3l0.1-1.3l0.1-1.3l0.1-1.3l0-1.3l0.1-1.3
		l0-1.3l0-1.3l0-1.3l0-1.3l0-1.3l0-1.2l0-1.2l0-1.2l0-1.2l0-1.2l0-1.2l0-1.2v-1.2v-1.2v-1.2l0-1.2l0-1.2l0-1.1l0-1.1l0-1.1l0-1.1
		l0-1.1l0-1.1l0-1.1l0-1.1l0-1.1l0-1.1l0-1.1l0-1.1l0-1.1l-0.1-1.1l0-1.1l-0.1-1.1l-0.1-1l-0.1-1l-0.1-1l-0.1-1l-0.1-1l-0.1-1
		l-0.1-1l-0.1-1l-0.1-1l-0.1-1l-0.1-1l-0.1-1l-0.1-1l-0.1-1l-0.1-1l-0.1-1l-0.1-1l-0.1-1l-0.1-0.9l-0.1-0.9l-0.1-0.9l-0.1-0.9
		l-0.1-0.9l-0.1-0.9l-0.1-0.9l-0.1-0.9l-0.1-0.9l-0.1-0.9l-0.1-0.9l-0.1-0.9l-0.1-0.9l-0.1-0.9l-0.1-0.9l-0.1-0.9l-0.1-0.9l-0.1-0.9
		l-0.1-0.9l-0.1-0.9l-0.1-0.9l-0.1-0.9l-0.1-0.9l-0.1-0.9l-0.1-0.8l-0.1-0.8l-0.1-0.8l-0.1-0.8l-0.1-0.8l-0.1-0.8l-0.3-1.6l-0.3-1.6
		l-0.3-1.6l-0.3-1.6L795,470l-0.3-1.6l-0.3-1.6l-0.3-1.6l-0.3-1.6l-0.3-1.6l-0.3-1.6l-0.6-3.1l-0.6-3.1l-0.3-1.5l-0.3-1.5l-0.3-1.5
		l-0.3-1.5l-0.3-1.5l-0.3-1.5l-0.3-1.5l-0.3-1.5l-0.3-1.5l-0.2-1.5l-0.1-0.7l-0.1-0.7l-0.1-0.7l-0.1-0.7l-0.1-0.7l-0.1-0.7l-0.1-0.7
		l-0.1-0.7l-0.1-0.7l-0.1-0.7l-0.1-0.8l-0.1-0.7l-0.1-0.7l-0.1-0.8l-0.1-0.7l-0.1-0.8l-0.1-0.7l-0.1-0.8l-0.1-0.8l-0.1-0.8l-0.1-0.8
		l-0.1-0.8l-0.1-0.8l-0.1-0.8l-0.1-0.8l-0.1-0.8l-0.1-0.8l-0.1-0.8l-0.1-0.8l-0.1-0.8l-0.1-0.8l-0.1-0.8l-0.1-0.8l-0.1-0.8l-0.1-0.8
		l-0.1-0.8l0-0.8l0-0.8l0-0.8l0-0.8l0-0.8l0-0.8l0-0.8l0-0.8l0-0.8l0-0.8l0-0.8l0-0.8l0-0.8l0-0.8l0-0.8l0-0.8v-0.8l0-0.8l0-0.8
		l0-0.8l0-0.8l0-0.8l0-0.8l0-0.8l0-0.8l0-0.8l0-0.8l0-0.9l0-0.9l0-0.9l0.1-0.9l0.1-0.9l0.1-0.9l0.1-0.9l0.1-0.9l0.1-0.9l0.1-0.9
		l0.1-0.9l0.1-0.9l0.1-0.9l0.1-0.9l0.1-0.9l0.1-0.9l0.1-0.9l0.1-0.9l0.1-0.9l0.1-0.9l0.1-0.9l0.1-0.9l0.1-0.9l0.1-0.9l0.1-0.9
		l0.1-0.9l0.1-1l0.2-1l0.2-1l0.2-1l0.2-1l0.2-1l0.2-1l0.1-0.7l0.1-0.7l0.1-0.7l0.1-0.7l0.1-0.7l0.1-0.7l0.1-0.7l0.1-0.7l0.1-0.7
		l0.1-0.7l0.1-0.7l0.1-0.7l0.1-0.7l0.1-0.7l0.2-0.7l0.2-0.7l0.2-0.7l0.2-0.7l0.2-0.7l0.2-0.7l0.2-0.7l0.2-0.7l0.2-0.7l0.2-0.7
		l0.2-0.7l0.2-0.7l0.2-0.7l0.2-0.7l0.2-0.7l0.2-0.7l0.2-0.7l0.2-0.7l0.2-0.7l0.2-0.7l0.2-0.7l0.2-0.7l0.2-0.7l0.2-0.7l0.2-0.7
		l0.2-0.7l0.2-0.7l0.2-0.7l0.2-0.7l0.2-0.7l0.2-0.7l0.2-0.7l0.2-0.7l0.2-0.7l0.2-0.7l0.2-0.7l0.2-0.7l0.2-0.7l0.2-0.7l0.2-0.7
		l0.2-0.7l0.2-0.7l0.2-0.7l0.2-0.7l0.2-0.7l0.2-0.7l0.3-0.7l0.3-0.7l0.3-0.7l0.3-0.7l0.3-0.7l0.3-0.7l0.3-0.7l0.3-0.7l0.3-0.7
		l0.3-0.7l0.3-0.7l0.3-0.7l0.3-0.7l0.3-0.7l0.3-0.7l0.3-0.7l0.3-0.7l0.3-0.7l0.3-0.7l0.3-0.7l0.3-0.7l0.3-0.7l0.3-0.7l0.3-0.7
		l0.3-0.7l0.3-0.7l0.3-0.7l0.3-0.7l0.3-0.7l0.3-0.7l0.3-0.7l0.3-0.7l0.3-0.7l0.3-0.7l0.3-0.7l0.3-0.7l0.3-0.7l0.3-0.7l0.3-0.7
		l0.3-0.7l0.3-0.6l0.4-0.6l0.4-0.6l0.4-0.6l0.4-0.6l0.4-0.6l0.4-0.6l0.4-0.6l0.4-0.6l0.4-0.6l0.4-0.6l0.4-0.6l0.4-0.6l0.4-0.6
		l0.4-0.6l0.4-0.6l0.4-0.6l0.4-0.6l0.4-0.6l0.4-0.6l0.4-0.6l0.4-0.6l0.4-0.6l0.4-0.6l0.4-0.6l0.4-0.6l0.4-0.6l0.4-0.6l0.5-0.6
		l0.5-0.6l0.5-0.6l0.5-0.6l0.5-0.6l0.5-0.6l0.5-0.6l0.5-0.6l0.5-0.6l0.5-0.6l0.5-0.6l0.5-0.6l0.5-0.6l0.5-0.6l0.5-0.6l0.5-0.6
		l0.5-0.6l0.5-0.6l0.5-0.6l0.5-0.6l0.5-0.6l0.5-0.6l0.5-0.6l0.5-0.6l0.5-0.6l0.5-0.6l0.5-0.6l0.6-0.6l0.5-0.6l0.6-0.6l0.6-0.6
		l0.6-0.6l0.6-0.6l0.6-0.5l0.6-0.5l0.6-0.5l0.6-0.5l0.6-0.5l0.6-0.5l0.6-0.5l0.6-0.5l0.6-0.5l0.6-0.5l0.6-0.5l0.6-0.5l0.6-0.5
		l0.6-0.5l0.6-0.5l0.6-0.5l0.6-0.5l0.6-0.5l0.6-0.5l0.6-0.5l0.6-0.5l0.6-0.5l0.6-0.5l0.6-0.5l0.6-0.5l0.6-0.5l0.6-0.5l0.6-0.5
		l0.6-0.5l0.6-0.5l0.6-0.5l0.6-0.5l0.6-0.5l0.6-0.5l0.6-0.5l0.6-0.4l0.6-0.5l0.7-0.4l0.7-0.4l0.7-0.4l0.7-0.4l0.7-0.4l0.7-0.4
		l0.7-0.4l0.7-0.4l0.7-0.4l0.7-0.4l0.7-0.4l0.7-0.4l0.7-0.4l0.7-0.4l0.7-0.4l0.7-0.4l0.7-0.4l0.7-0.4l0.7-0.4l0.7-0.4l0.7-0.4
		l0.7-0.4l0.7-0.4l0.7-0.4l0.7-0.4l0.7-0.4l0.7-0.4l0.7-0.4l0.7-0.4l0.7-0.4l0.7-0.4l0.7-0.4l0.7-0.4l0.7-0.4l0.7-0.4l0.7-0.3
		l0.7-0.3l0.7-0.3l0.7-0.3l0.7-0.3l0.7-0.3l0.7-0.3l0.7-0.3l0.7-0.3l0.7-0.3l0.7-0.3l0.7-0.3l0.7-0.3l0.7-0.3l0.7-0.3l0.7-0.3
		l0.7-0.3l0.7-0.3l0.7-0.3l0.7-0.3l0.7-0.3l0.7-0.3l0.7-0.3l0.7-0.3l0.7-0.3l0.7-0.3l0.7-0.3l0.8-0.3l0.7-0.3l0.8-0.3l0.8-0.3
		l0.8-0.3l0.8-0.3l0.8-0.3l0.8-0.2l0.8-0.2l0.8-0.2l0.8-0.2l0.8-0.2l0.8-0.2l0.8-0.2l0.8-0.2l0.8-0.2l0.8-0.2l0.8-0.2l0.8-0.2
		l0.8-0.2l0.8-0.2l0.8-0.2l0.8-0.2l0.8-0.2l0.8-0.2l0.8-0.2l0.8-0.2l0.8-0.2l0.8-0.2l0.8-0.2l0.8-0.2l0.8-0.2l0.8-0.2l0.8-0.2
		l0.8-0.2l0.8-0.2l0.8-0.2l0.8-0.1l0.8-0.1l0.8-0.1l0.8-0.1l0.8-0.1l0.8-0.1l0.8-0.1l0.8-0.1l0.8-0.1l0.8-0.1l0.8-0.1l0.8-0.1
		l0.8-0.1l0.8-0.1l0.8-0.1l0.8-0.1l0.8-0.1l0.8-0.1l0.8-0.1l0.8-0.1l0.8-0.1l0.8-0.1l0.8-0.1l0.8-0.1l0.8-0.1l0.8-0.1l0.8-0.1
		l0.8-0.1l0.8-0.1l0.8-0.1l0.8-0.1l0.8,0l0.8,0l0.8,0l0.8,0l0.8,0l0.8,0l0.8,0l0.8,0l0.8,0l0.8,0l0.8,0l0.8,0l0.8,0h0.8l0.8,0
		L972.1,201.9L972.1,201.9z M970.6,215.3h-0.7l-0.7,0l-0.7,0l-0.7,0l-0.7,0l-0.7,0l-0.7,0l-0.7,0l-0.7,0l-0.7,0l-0.7,0l-0.7,0
		l-0.7,0l-0.7,0l-0.7,0l-0.7,0.1l-0.7,0.1l-0.7,0.1l-0.7,0.1l-0.7,0.1l-0.7,0.1l-0.7,0.1l-0.7,0.1l-0.7,0.1l-0.7,0.1l-0.7,0.1
		l-0.7,0.1l-0.7,0.1l-0.7,0.1l-0.7,0.1l-0.7,0.1l-0.7,0.1l-0.7,0.1l-0.7,0.1l-0.7,0.1l-0.7,0.1l-0.7,0.1l-0.7,0.1l-0.7,0.1l-0.7,0.1
		l-0.7,0.1l-0.7,0.1l-0.7,0.1l-0.7,0.1l-0.7,0.1l-0.7,0.1l-0.7,0.1l-0.7,0.1l-0.7,0.2l-0.7,0.2l-0.7,0.2l-0.7,0.2l-0.7,0.2l-0.7,0.2
		l-0.7,0.2l-0.7,0.2l-0.7,0.2l-0.7,0.2l-0.7,0.2l-0.7,0.2l-0.7,0.2l-0.7,0.2l-0.7,0.2l-0.7,0.2l-0.7,0.2l-0.7,0.2l-0.7,0.2l-0.7,0.2
		l-0.7,0.2l-0.7,0.2l-0.7,0.2l-0.7,0.2l-0.7,0.2l-0.7,0.2l-0.7,0.2l-0.7,0.2l-0.7,0.2l-0.7,0.2l-0.7,0.2l-0.7,0.2l-0.7,0.3l-0.7,0.2
		l-0.7,0.3l-0.7,0.3l-0.7,0.3l-0.7,0.3l-0.7,0.3l-0.7,0.3l-0.7,0.3l-0.7,0.3l-0.7,0.3l-0.7,0.3l-0.7,0.3l-0.7,0.3l-0.7,0.3l-0.7,0.3
		l-0.7,0.3l-0.7,0.3l-0.7,0.3l-0.7,0.3l-0.7,0.3l-0.7,0.3l-0.7,0.3l-0.7,0.3l-0.7,0.3l-0.7,0.3l-0.7,0.3l-0.7,0.3l-0.7,0.3L892,234
		l-0.7,0.3l-0.7,0.3L890,235l-0.7,0.3l-0.7,0.3l-0.7,0.3l-0.7,0.3l-0.7,0.3l-0.6,0.4l-0.7,0.4l-0.6,0.4l-0.6,0.4l-0.6,0.4l-0.6,0.4
		l-0.6,0.4l-0.6,0.4L881,240l-0.6,0.4l-0.6,0.4l-0.6,0.4l-0.6,0.4l-0.6,0.4l-0.6,0.4l-0.6,0.4l-0.6,0.4l-0.6,0.4l-0.6,0.4l-0.6,0.4
		l-0.6,0.4l-0.6,0.4l-0.6,0.4l-0.6,0.4l-0.6,0.4l-0.6,0.4l-0.6,0.4l-0.6,0.4l-0.6,0.4l-0.6,0.4l-0.6,0.4l-0.6,0.4l-0.6,0.4l-0.6,0.4
		l-0.6,0.4l-0.6,0.4l-0.6,0.4l-0.6,0.4l-0.6,0.4l-0.6,0.4l-0.6,0.4l-0.6,0.5l-0.6,0.5l-0.6,0.5l-0.6,0.5l-0.6,0.5l-0.6,0.5l-0.6,0.5
		l-0.6,0.5l-0.5,0.5l-0.6,0.5l-0.5,0.5l-0.5,0.5l-0.5,0.5l-0.5,0.5l-0.5,0.5l-0.5,0.5l-0.5,0.5l-0.5,0.5l-0.5,0.5l-0.5,0.5l-0.5,0.5
		l-0.5,0.5l-0.5,0.5l-0.5,0.5l-0.5,0.5l-0.5,0.5l-0.5,0.5l-0.5,0.5l-0.5,0.5l-0.5,0.5l-0.5,0.5l-0.5,0.5l-0.5,0.5l-0.5,0.5l-0.5,0.5
		l-0.5,0.5l-0.5,0.5l-0.5,0.5l-0.5,0.5l-0.5,0.5l-0.5,0.5l-0.5,0.5l-0.5,0.6l-0.5,0.6l-0.5,0.6l-0.4,0.6l-0.4,0.6l-0.4,0.6l-0.4,0.6
		l-0.4,0.6l-0.4,0.6l-0.4,0.6l-0.4,0.6l-0.4,0.6l-0.4,0.6l-0.4,0.5l-0.4,0.5l-0.4,0.5l-0.4,0.5l-0.4,0.5l-0.4,0.5l-0.4,0.5l-0.4,0.5
		l-0.4,0.5l-0.4,0.5l-0.4,0.6l-0.4,0.6l-0.3,0.6l-0.4,0.6l-0.3,0.6l-0.3,0.6l-0.3,0.6l-0.3,0.6l-0.3,0.6l-0.3,0.6l-0.3,0.6l-0.3,0.6
		l-0.3,0.6l-0.3,0.6l-0.3,0.6l-0.3,0.6l-0.3,0.6l-0.3,0.6l-0.3,0.6l-0.3,0.6l-0.3,0.6l-0.3,0.6l-0.3,0.6l-0.3,0.6l-0.3,0.6l-0.3,0.6
		l-0.3,0.6l-0.3,0.6l-0.3,0.6l-0.3,0.6l-0.3,0.6l-0.3,0.6l-0.3,0.6l-0.3,0.6l-0.3,0.6l-0.3,0.6l-0.3,0.6l-0.3,0.6l-0.3,0.6l-0.3,0.6
		l-0.3,0.6l-0.3,0.6l-0.3,0.6l-0.3,0.6l-0.3,0.7l-0.3,0.6l-0.3,0.7l-0.3,0.7l-0.3,0.7l-0.3,0.7l-0.3,0.7l-0.3,0.7l-0.2,0.7l-0.2,0.7
		l-0.2,0.7l-0.2,0.7l-0.2,0.7l-0.2,0.7l-0.2,0.7l-0.2,0.7l-0.2,0.7l-0.2,0.7l-0.2,0.7l-0.2,0.7l-0.2,0.7l-0.2,0.7l-0.2,0.7l-0.2,0.7
		l-0.2,0.7l-0.2,0.7l-0.2,0.7l-0.2,0.7l-0.2,0.7l-0.2,0.7l-0.2,0.7l-0.2,0.7l-0.2,0.7l-0.2,0.7l-0.2,0.7l-0.2,0.7l-0.2,0.7l-0.2,0.7
		l-0.2,0.7l-0.2,0.7l-0.2,0.7l-0.2,0.7l-0.2,0.7l-0.2,0.7l-0.2,0.7l-0.2,0.7l-0.2,0.7l-0.2,0.7l-0.2,0.7l-0.2,0.7l-0.2,0.7l-0.2,0.7
		l-0.2,0.7l-0.2,0.7l-0.2,0.7l-0.2,0.7l-0.1,0.7l-0.1,0.7l-0.1,0.7l-0.1,0.7l-0.1,0.7l-0.1,0.7l-0.1,0.7l-0.1,0.7l-0.1,0.7l-0.1,0.7
		l-0.1,0.7l-0.1,0.7l-0.1,0.7l-0.1,0.7l-0.1,0.7l-0.1,0.7l-0.1,0.7l-0.1,0.6l-0.2,0.9l-0.2,0.9l-0.2,0.9l-0.2,0.9l-0.1,0.9l-0.1,0.9
		l-0.1,0.9l-0.1,0.9l-0.1,0.9l-0.1,0.9l-0.1,0.9l-0.1,0.9l-0.1,0.9l-0.1,0.9l-0.1,0.9l-0.1,0.9l-0.1,0.9l-0.1,0.9l-0.1,0.8l-0.1,0.8
		l-0.1,0.8l-0.1,0.8l-0.1,0.8l-0.1,0.8l-0.1,0.8l-0.1,0.8l-0.1,0.8l-0.1,0.8l0,0.8l0,0.8l0,0.8l0,0.8l0,0.8l0,0.8l0,0.8l0,0.8l0,0.8
		l0,0.8l0,0.8l0,0.8l0,0.8l0,0.8l0,0.8l0,0.8v0.8l0,0.8l0,0.8l0,0.8l0,0.7l0,0.7l0,0.7l0,0.7l0,0.7l0,0.7l0,0.7l0,0.7l0,0.7l0,0.7
		l0,0.7l0,0.7l0,0.7l0.1,0.7l0.1,0.7l0.1,0.7l0.1,0.7l0.1,0.7l0.1,0.7l0.1,0.7l0.1,0.7l0.1,0.7l0.1,0.7l0.1,0.7l0.1,0.7l0.1,0.7
		l0.1,0.7l0.1,0.7l0.1,0.7l0.1,0.7l0.1,0.7l0.1,0.7l0.1,0.7l0.1,0.7l0.1,0.7l0.1,0.7l0.1,0.7l0.1,0.7l0.1,0.7l0.1,0.7l0.1,0.7
		l0.1,0.7l0.1,0.7l0.1,0.7l0.1,0.7l0.1,0.7l0.1,0.7l0.1,0.7l0.2,1.5l0.3,1.5l0.2,1.5l0.3,1.5l0.3,1.5l0.3,1.5l0.3,1.5l0.3,1.5
		l0.3,1.5l0.3,1.5l0.6,3l0.6,3.1l0.3,1.6l0.3,1.6l0.3,1.6l0.3,1.6l0.3,1.6l0.3,1.6l0.3,1.6l0.3,1.6l0.3,1.7l0.3,1.7l0.3,1.7l0.1,0.9
		l0.1,0.9l0.1,0.9l0.1,0.9l0.1,0.9l0.1,0.9l0.1,0.9l0.1,0.9l0.1,0.9l0.1,0.9l0.1,0.9l0.1,0.9l0.1,0.9l0.1,0.9l0.1,0.9l0.1,0.9
		l0.1,0.9l0.1,0.9l0.1,0.9l0.1,0.9l0.1,0.9l0.1,0.9l0.1,0.9l0.1,1l0.1,1l0.1,1l0.1,1l0.1,1l0.1,1l0.1,1l0.1,1l0.1,1l0.1,1l0.1,1
		l0.1,1l0.1,1l0.1,1l0.1,1l0.1,1l0.1,1l0.1,1l0.1,1l0.1,1l0.1,1.1l0.1,1.1l0.1,1.1l0.1,1.1l0.1,1.1l0.1,1.1l0.1,1.1l0.1,1.1l0,1.1
		l0,1.1l0,1.1l0,1.1l0,1.1l0,1.1l0,1.1l0,1.2l0,1.2l0,1.2l0,1.2l0,1.2l0,1.2l0,1.2l0,1.2v1.2v1.2v1.2l0,1.2l0,1.2l0,1.2l0,1.3l0,1.3
		l0,1.3l0,1.3l0,1.3l0,1.3l0,1.3l0,1.3l0,1.3l0,1.3l-0.1,1.3l-0.1,1.3l-0.1,1.3l-0.1,1.4l-0.1,1.4l-0.1,1.4l-0.1,1.4l-0.1,1.4
		l-0.1,1.4l-0.1,1.4l-0.1,1.4l-0.1,1.4l-0.1,1.4l-0.1,1.4l-0.1,1.5l-0.1,1.5l-0.1,1.5l-0.1,1.5l-0.1,1.5l-0.1,1.5l-0.1,1.5l-0.1,1.5
		l-0.1,1.5l-0.1,1.5l-0.2,1.5l-0.2,1.6l-0.2,1.6l-0.2,1.6l-0.1,0.5l0,0.5l0,0.5l0,0.5l0,0.5l0,0.5l0,0.5l0,0.5l0,0.5l0,0.5l0,0.5
		l0,0.5l0,0.5l0,0.5l0,0.5l0,0.5l0,0.5l0,0.5l0,0.5l0,0.5l0,0.5v0.5v0.5l0,0.5v0.5l0,0.5l0,0.5l0,0.5l0,0.5l0,0.5l0,0.5l0,0.5l0,0.5
		l0,0.5l0,0.5l0,0.5l0,0.5l0,0.5l0,0.5l0,0.5l0,0.5l0,0.5l0,0.5l0,0.5l0,0.5l0,0.5l0,0.5l0,0.5l0.1,0.5l0.1,0.5l0.1,0.5l0.1,0.5
		l0.1,0.5l0.1,0.5l0.1,0.5l0.1,0.5l0.1,0.5l0.1,0.5l0.1,0.5l0.1,0.5l0.1,0.5l0.1,0.5l0.1,0.5l0.1,0.5l0.1,0.5l0.1,0.5l0.1,0.5
		l0.1,0.5l0.1,0.5l0.1,0.5l0.1,0.5l0.1,0.5l0.1,0.5l0.1,0.5l0.1,0.5l0.1,0.5l0.1,0.5l0.1,0.5l0.1,0.5l0.1,0.5l0.1,0.5l0.1,0.5
		l0.1,0.5l0.1,0.5l0.1,0.5l0.1,0.5l0.1,0.5l0.1,0.5l0.1,0.5l0.1,0.5l0.2,0.9l0.2,0.9l0.2,0.9l0.2,0.9l0.2,0.9l0.2,0.9l0.2,0.9
		l0.2,0.9l0.2,0.9l0.2,0.9l0.2,0.9l0.3,0.9l0.3,0.9l0.3,0.9l0.3,0.8l0.3,0.8l0.3,0.8l0.3,0.8l0.3,0.8l0.3,0.8l0.3,0.8l0.3,0.8
		l0.3,0.8l0.3,0.8l0.3,0.8l0.3,0.8l0.3,0.7l0.3,0.7l0.3,0.7l0.3,0.7l0.3,0.7l0.3,0.7l0.3,0.7l0.3,0.7l0.3,0.7l0.3,0.7l0.3,0.7
		l0.3,0.6l0.2,0.6l0.2,0.6l0.2,0.6l0.2,0.6l0.2,0.6l0.2,0.6l0.2,0.6l0.2,0.6l0.2,0.5l0.2,0.5l0.2,0.5l0.2,0.5l0.2,0.5l0.2,0.5
		l0.2,0.5l0.4,0.9l0.4,0.8l0.4,0.8l0.3,0.7l0.3,0.7l0.3,0.6l0.3,0.6l0.2,0.5l0.2,0.4l0.2,0.4l0.1,0.3l0.2,0.4l0.1,0.2l0.2,0.4
		l0.2,0.3l0.2,0.3l0.2,0.3l0.2,0.3l0.2,0.3l0.2,0.3l0.2,0.3l0.2,0.3l0.2,0.3l0.2,0.3l0.2,0.3l0.2,0.3l0.2,0.3l0.2,0.3l0.2,0.3
		l0.2,0.3l0.2,0.3l0.2,0.3l0.2,0.3l0.2,0.3l0.2,0.3l0.2,0.3l0.2,0.3l0.2,0.3l0.2,0.3l0.2,0.3l0.2,0.3l0.2,0.3l0.2,0.3l0.2,0.3
		l0.2,0.3l0.2,0.3l0.2,0.3l0.2,0.3l0.2,0.3l0.2,0.3l0.2,0.3l0.2,0.3l0.2,0.3l0.2,0.3l0.2,0.3l0.2,0.3l0.2,0.3l0.2,0.3l0.2,0.3
		l0.2,0.3l0.2,0.3l0.2,0.3l0.2,0.3l0.2,0.3l0.2,0.3l0.2,0.3l0.2,0.3l0.2,0.3l0.2,0.3l0.2,0.3l0.2,0.3l0.2,0.3l0.2,0.3l0.2,0.3
		l0.2,0.3l0.2,0.3l0.2,0.3l0.2,0.3l0.2,0.3l0.4,0.5l0.4,0.5l0.4,0.5l0.4,0.5l0.4,0.5l0.4,0.5l0.5,0.5l0.5,0.5l0.5,0.5l0.5,0.5
		l0.5,0.5l0.5,0.5l0.5,0.5l0.5,0.5l0.5,0.5l0.5,0.5l0.5,0.5l0.5,0.5l0.5,0.5l0.5,0.5l0.5,0.5l0.5,0.5l0.5,0.4l0.5,0.4l0.5,0.4
		l0.5,0.4l0.5,0.4l0.5,0.4l0.5,0.4l0.5,0.4l0.5,0.4l0.5,0.4l0.5,0.4l0.5,0.4l0.5,0.4l0.5,0.4l0.5,0.4l0.5,0.4l0.5,0.4l0.5,0.4
		l0.5,0.4l0.5,0.4l0.5,0.4l0.5,0.4l0.5,0.4l0.5,0.4l0.5,0.4l0.6,0.4l0.5,0.4l0.5,0.4l0.6,0.4l0.6,0.4l0.6,0.4l0.6,0.4l0.6,0.4
		l0.6,0.4l0.6,0.3l0.6,0.3l0.6,0.3l0.6,0.3l0.6,0.3l0.6,0.3l0.6,0.3l0.6,0.3l0.6,0.3l0.6,0.3l0.6,0.3l0.6,0.3l0.6,0.3l0.6,0.3
		l0.6,0.3l0.6,0.3l0.6,0.3l0.6,0.3l0.6,0.3l0.6,0.3l0.6,0.3l0.6,0.3l0.6,0.3l0.6,0.3l0.6,0.3l0.6,0.3l0.6,0.3l0.6,0.3l0.6,0.3
		l0.6,0.3l0.6,0.3l0.6,0.3l0.6,0.3l0.6,0.3l0.6,0.3l0.6,0.3l0.6,0.3l0.6,0.2l0.6,0.3l0.6,0.2l0.6,0.2l0.6,0.2l0.6,0.2l0.6,0.2
		l0.6,0.2l0.6,0.2l0.6,0.2l0.6,0.2l0.6,0.2l0.6,0.2l0.6,0.2l0.6,0.2l0.6,0.2l0.6,0.2l0.6,0.2l0.6,0.2l0.6,0.2l0.5,0.2l0.6,0.2
		l0.5,0.2l0.5,0.2l0.5,0.2l0.5,0.2l0.5,0.2l0.5,0.2l0.5,0.2l0.5,0.2l0.5,0.2l0.5,0.2l0.5,0.2l0.5,0.2l0.5,0.2l0.5,0.2l0.5,0.2
		l0.5,0.2l0.5,0.2l0.5,0.2l0.5,0.2l0.5,0.2l0.5,0.2l0.5,0.2l0.5,0.1l0.5,0.1l0.5,0.1l0.5,0.1l0.5,0.1l0.5,0.1l0.5,0.1l0.5,0.1l1,0.3
		l1,0.3l0.9,0.3l0.9,0.2l0.9,0.2l0.9,0.2l0.9,0.2l0.9,0.2l0.9,0.2l0.9,0.2l0.8,0.2l0.8,0.2l0.8,0.2l0.8,0.2l0.8,0.2l0.8,0.2l0.7,0.1
		l0.7,0.1l0.7,0.1l0.7,0.1l0.7,0.1l0.7,0.1l0.6,0.1l0.6,0.1l0.6,0.1l0.6,0.1l0.6,0.1l0.5,0.1l0.5,0.1l0.5,0.1l0.5,0.1l0.4,0.1
		l0.4,0.1l0.4,0.1l0.4,0l0.4,0l0.3,0l0.3,0l0.3,0l0.9,0.1l0.9,0.1l0.9,0.1l0.9,0.1l0.9,0.1l0.9,0.1l0.9,0.1l0.9,0.1l0.9,0.1l0.9,0.1
		l0.9,0.1l0.9,0.1l0.9,0.1l0.9,0l0.9,0l0.9,0l0.9,0l0.9,0l0.9,0l0.9,0l0.9,0l0.9,0l0.9,0l0.9,0l0.9,0l0.9,0l0.9,0l0.9,0l0.9,0h0.9
		h0.9l0.9,0l0.9,0l0.9,0l0.9,0l0.9,0l0.9,0l0.9,0l0.9,0l0.9,0l0.9,0l0.9,0l0.9,0l0.8,0l0.8,0l0.8,0l0.8,0l0.8-0.1l0.8-0.1l0.8-0.1
		l0.8-0.1l0.8-0.1l0.8-0.1l0.8-0.1l0.8-0.1l0.8-0.1l0.8-0.1l0.8-0.1l0.8-0.1l0.8-0.1l0.8-0.1l0.8-0.1l0.8-0.1l0.8-0.1l0.8-0.1
		l0.8-0.1l0.8-0.1l0.8-0.1l0.8-0.1l0.8-0.1l0.8-0.1l0.8-0.1l0.8-0.1l0.8-0.1l0.8-0.1l0.8-0.1l0.8-0.1l0.8-0.1l0.8-0.1l0.8-0.1
		l0.8-0.1l0.8-0.1l0.8-0.1l0.8-0.1l0.8-0.1l0.8-0.1l0.8-0.2l0.8-0.2l0.8-0.2l0.8-0.2l0.8-0.2l0.8-0.2l0.8-0.2l0.8-0.2l0.8-0.2
		l0.8-0.2l0.8-0.2l0.7-0.2l0.7-0.2l0.7-0.2l0.7-0.2l0.7-0.2l0.7-0.2l0.7-0.2l0.7-0.2l0.7-0.2l0.7-0.2l0.7-0.2l0.7-0.2l0.7-0.2
		l0.7-0.2l0.7-0.2l0.7-0.2l0.7-0.2l0.7-0.2l0.7-0.2l0.7-0.2l0.7-0.2l0.7-0.2l0.7-0.2l0.7-0.2l0.7-0.2l0.7-0.2l0.7-0.2l0.7-0.2
		l0.7-0.2l0.7-0.2l0.7-0.2l0.7-0.2l0.7-0.2l0.7-0.3l0.7-0.3l0.7-0.3l0.7-0.3l0.7-0.3l0.7-0.3l0.6-0.3l0.6-0.3l0.6-0.3l0.6-0.3
		l0.6-0.3l0.6-0.3l0.6-0.3l0.6-0.3l0.6-0.3l0.6-0.3l0.6-0.3l0.6-0.3l0.6-0.3l0.6-0.3l0.6-0.3l0.6-0.3l0.6-0.3l0.6-0.3l0.6-0.3
		l0.6-0.3l0.6-0.3l0.6-0.3l0.6-0.3l0.6-0.3l0.6-0.3l0.6-0.3l0.6-0.3l0.6-0.3l0.6-0.3l0.6-0.3l0.6-0.3l0.6-0.3l0.5-0.3l0.5-0.3
		l0.5-0.3l0.5-0.3l0.5-0.3l0.5-0.3l0.5-0.3l0.5-0.3l0.5-0.3l0.5-0.3l0.5-0.3l0.5-0.3l0.5-0.3l0.5-0.3l0.5-0.3l0.5-0.3l0.5-0.3
		l0.5-0.3l0.5-0.3l0.5-0.3l0.5-0.3l0.5-0.3l0.5-0.3l0.5-0.3l0.5-0.3l0.5-0.3l0.4-0.3l0.4-0.3l0.4-0.4l0.4-0.4l0.4-0.3l0.4-0.4
		l0.4-0.4l0.4-0.4l0.4-0.4l0.4-0.4l0.4-0.4l0.4-0.4l0.4-0.4l0.4-0.4l0.4-0.4l0.4-0.4l0.4-0.4l0.4-0.4l0.4-0.4l0.4-0.4l0.4-0.4
		l0.4-0.4l0.4-0.4l0.4-0.4l0.4-0.4l0.3-0.4l0.3-0.4l0.3-0.4l0.3-0.4l0.3-0.4l0.3-0.4l0.3-0.4l0.3-0.4l0.3-0.4l0.3-0.4l0.3-0.4
		l0.3-0.4l0.3-0.4l0.3-0.4l0.3-0.4l0.3-0.4l0.3-0.4l0.3-0.4l0.3-0.4l0.3-0.4l0.3-0.4l0.3-0.4l0.3-0.4l0.2-0.4l0.2-0.4l0.2-0.4
		l0.2-0.4l0.2-0.4l0.2-0.4l0.2-0.4l0.2-0.4l0.2-0.4l0.2-0.4l0.2-0.4l0.2-0.4l0.2-0.4l0.2-0.4l0.2-0.5l0.2-0.5l0.2-0.5l0.2-0.5
		l0.2-0.5l0.2-0.5l0.2-0.5l0.2-0.5l0.2-0.5l0.2-0.5l0.2-0.5l0.2-0.5l0.2-0.5l0.2-0.5l0.2-0.5l0.2-0.5l0.2-0.5l0.2-0.5l0.2-0.5
		l0.2-0.5l0.2-0.5l0.2-0.5l0.2-0.5l0.2-0.5l0.2-0.5l0.2-0.5l0.2-0.5l0.2-0.5l0.2-0.5l0.2-0.5l0.2-0.5l0.2-0.5l0.2-0.5l0.2-0.5
		l0.2-0.5l0.2-0.5l0.2-0.5l0.2-0.5l0.2-0.5l0.2-0.5l0.2-0.5l0.2-0.5l0.2-0.5l0.2-0.5l0.2-0.5l0.2-0.5l0.2-0.5l0.2-0.5l0.2-0.5
		l0.2-0.5l0.2-0.5l0.2-0.5l0.2-0.5l0.2-0.5l0.2-0.5l0.1-0.5l0.2-0.5l0.1-0.5l0.1-0.5l0.1-0.5l0.1-0.5l0.1-0.5l0.1-0.5l0.1-0.5
		l0.1-0.5l0.1-0.5l0.1-0.5l0.1-0.5l0.1-0.5l0.1-0.5l0.1-0.5l0.1-0.5l0.1-0.5l0.1-0.5l0.1-0.5l0.1-0.5l0.1-0.5l0.1-0.5l0.1-0.5
		l0.1-0.5l0.1-0.5l0.1-0.5l0.1-0.5l0.1-0.5l0.1-0.5l0.1-0.5l0.1-0.5l0.1-0.5l0.1-0.5l0.1-0.5l0.1-0.5l0.1-0.5l0.1-0.5l0.1-0.5
		l0.1-0.5l0.1-0.5l0.1-0.5l0.1-0.5l0.1-0.5l0.1-0.5l0.1-0.5l0.1-0.5l0.1-0.5l0.1-0.5l0.1-0.5l0.1-0.5l0.1-0.5l0.1-0.5l0.1-0.5
		l0.1-0.5l0.1-0.5l0.1-0.5l0.1-0.5l0.1-0.5l0.1-0.5l0.1-0.5l0.1-0.5l0.1-0.5l0.1-0.5l0.1-0.5l0.1-0.5l0.1-0.5l0.1-0.5l0.1-0.5
		l0.1-0.5l0.1-0.5l0.1-0.5l0-0.5l0.1-0.5l0-0.5l0-0.5l0-0.5l0-0.5l0-0.5l0-0.5l0-0.5l0-0.5l0-0.5l0-0.5l0-0.5l0-0.5l0-0.6l0-0.6
		l0-0.6l0-0.6l0-0.6l0-0.6l0-0.6l0-0.6l0-0.6l0-0.6l0-0.6l0-0.6l0-0.6l0-0.6l0-0.6l0-0.6l0-0.6l0-0.6l0-0.6l0-0.6l0-0.6l0-0.6l0-0.6
		v-0.6l0-0.6v-0.6v-0.6V621l0-0.6v-0.6l0-0.6l0-0.6l0-0.6l0-1.2l0-1.2l0-1.2l0-1.2l0-1.2l0-1.2l0-1.3l-0.1-1.3l-0.1-1.3l-0.1-1.3
		l-0.1-1.3l-0.1-1.3l-0.1-1.3l-0.1-1.3l-0.1-1.3l-0.1-1.3l-0.1-1.3l-0.1-1.3l-0.1-1.4l-0.1-1.4l-0.1-1.4l-0.1-1.4l-0.1-1.4l-0.1-1.4
		l-0.1-1.4l-0.1-1.4l-0.1-1.4l-0.1-1.4l-0.1-1.5l-0.2-1.5l-0.2-1.5l-0.2-1.5l-0.2-1.5l-0.2-1.5l-0.2-1.5l-0.2-1.5l-0.2-1.5l-0.2-1.6
		l-0.2-1.6l-0.2-1.6l-0.2-1.6l0-0.4l0-0.4l0-0.4l0-0.4l0-0.4l0-0.4l0-0.4l0-0.4l0-0.4l0-0.4l0-0.4l0-0.4l0-0.5l0-0.4l0-0.5l0-0.4
		v-0.5v-0.5v-0.5l0-0.5l0-0.5l0-0.5l0-0.5l0-0.5l0-0.5l0-0.5l0-0.5l0-0.5l0-0.5l0-0.5l0-0.5l0-0.5l0-0.5l0-0.5l0-0.5l0-0.5l0.1-0.5
		l0-0.5l0.1-0.5l0.1-0.5l0.1-0.5l0.1-0.5l0.1-0.5l0.1-0.5l0.1-0.5l0.1-0.5l0.1-0.5l0.1-0.5l0.1-0.5l0.1-0.5l0.1-0.5l0.1-0.5l0.1-0.5
		l0.1-0.5l0.1-0.5l0.1-0.5l0.1-0.5l0.1-0.5l0.1-0.5l0.1-0.5l0.1-0.5l0.1-0.5l0.1-0.5l0.1-0.5l0.1-0.5l0.1-0.5l0.1-0.5l0.1-0.5
		l0.1-0.5l0.1-0.5l0.1-0.5l0.1-0.5l0.1-0.5l0.1-0.5l0.1-0.5l0.1-0.5l0.3-1l0.3-1l0.3-1l0.3-1l0.3-1l0.3-1l0.3-1l0.3-1l0.3-1l0.3-1
		l0.3-1l0.3-1l0.3-1l0.3-1l0.3-1l0.3-1l0.3-1l0.3-1l0.3-1l0.3-1l0.3-1l0.3-1l0.3-1l0.3-1l0.3-1l0.3-1l0.3-1l0.3-1l0.7-2l0.7-2l0.7-2
		l0.7-2l0.7-2l1.4-3.9l0.7-1.9l0.7-1.9l0.7-1.9l0.3-0.9l0.3-1l0.3-0.9l0.3-0.9l0.3-0.9l0.3-0.9l0.3-0.9l0.3-0.9l0.3-0.9l0.3-0.9
		l0.3-0.9l0.3-0.9l0.3-0.9l0.3-0.9l0.3-0.9l0.3-0.9l0.3-0.9l0.3-0.9l0.3-0.9l0.3-0.9l0.2-0.9l0.2-0.9l0.2-0.9l0.2-0.8l0.2-0.8
		l0.2-0.8l0.2-0.8l0.1-0.4l0.1-0.4l0.1-0.4l0.1-0.4l0.1-0.4l0.1-0.4l0.1-0.4l0.1-0.4l0.1-0.4l0.1-0.4l0.1-0.4l0.1-0.4l0.1-0.4
		l0.1-0.4l0.1-0.4l0.1-0.4l0.1-0.4l0.1-0.4l0.1-0.4l0.1-0.4l0.1-0.4l0.1-0.4l0.1-0.4l0.1-0.4l0.1-0.4l0.1-0.4l0.1-0.4l0.1-0.4
		l0.1-0.4l0-0.4l0.1-0.9l0.1-0.9l0.1-0.9l0.1-0.9l0.1-0.9l0.1-0.9l0.1-0.9l0.1-0.9l0.1-0.9l0.1-0.9l0.1-0.9l0.1-0.9l0.1-0.9l0.1-0.9
		l0.1-0.9l0.1-0.9l0.1-0.9l0.1-0.9l0.1-0.9l0.1-0.9l0.1-0.9l0.1-0.9l0.1-0.9l0.1-0.9l0.1-0.9l0.1-0.9l0-0.9l0-0.9l0-0.9l0-0.9l0-0.9
		l0-0.9l0-0.9l0-0.9l0-0.9l0-0.9l0-0.9l0-0.9l0-0.9l0-0.9l0-0.9l0-0.9l0-0.9v-0.9v-0.9v-0.9l0-0.9l0-0.9l0-0.9l0-0.9l0-0.9l0-0.9
		l0-0.9l0-0.9l0-0.9l0-0.9l0-0.9l0-0.9l0-0.9l0-0.9l0-0.9l-0.1-0.9l-0.1-0.9l-0.1-0.9l-0.1-0.9l-0.1-0.9l-0.1-0.9l-0.1-0.9l-0.1-0.9
		l-0.1-0.9l-0.1-0.9l-0.1-0.9l-0.1-0.9l-0.1-0.9l-0.1-0.9l-0.1-0.9l-0.1-0.9l-0.1-0.9l-0.1-0.9l-0.1-0.9l-0.1-0.9l-0.1-0.9l-0.1-0.9
		l-0.1-0.9l-0.1-0.9l-0.1-0.9l-0.1-0.9l-0.1-0.9l-0.1-0.9l-0.1-0.9l-0.1-0.9l-0.1-0.9l-0.2-0.9l-0.2-0.9l-0.2-0.9l-0.2-0.9l-0.2-0.9
		l-0.2-0.9l-0.2-0.9l-0.2-0.9l-0.2-0.9l-0.2-0.9l-0.2-0.9l-0.2-0.9l-0.2-0.9l-0.2-0.9l-0.2-0.9l-0.2-0.9l-0.2-0.9l-0.2-0.9l-0.2-0.9
		l-0.2-0.9l-0.2-0.8l-0.2-0.9l-0.2-0.8l-0.2-0.8l-0.2-0.8l-0.3-0.8l-0.2-0.8l-0.3-0.8l-0.3-0.8l-0.3-0.8l-0.3-0.8l-0.3-0.8l-0.3-0.8
		l-0.3-0.8l-0.3-0.8l-0.3-0.8l-0.3-0.8l-0.3-0.8l-0.3-0.8l-0.3-0.8l-0.3-0.8l-0.3-0.8l-0.3-0.8l-0.3-0.8l-0.3-0.8l-0.3-0.8l-0.3-0.8
		l-0.3-0.8l-0.3-0.8l-0.3-0.8l-0.3-0.8l-0.3-0.8l-0.4-0.8l-0.4-0.8l-0.4-0.8l-0.4-0.8l-0.4-0.8l-0.4-0.8l-0.4-0.8l-0.4-0.8l-0.4-0.8
		l-0.4-0.8l-0.4-0.8l-0.4-0.8l-0.2-0.4l-0.2-0.4l-0.2-0.4l-0.2-0.4l-0.2-0.4l-0.2-0.4l-0.2-0.4l-0.2-0.4l-0.2-0.4l-0.2-0.4l-0.2-0.4
		l-0.2-0.4l-0.2-0.4l-0.2-0.4l-0.2-0.4l-0.2-0.4l-0.2-0.4l-0.2-0.4l-0.2-0.4l-0.2-0.4l-0.2-0.4l-0.2-0.4l-0.2-0.4l-0.2-0.4l-0.2-0.4
		l-0.2-0.4l-0.2-0.4l-0.2-0.4l-0.2-0.4l-0.2-0.4l-0.2-0.4l-0.2-0.4l-0.2-0.4l-0.2-0.4l-0.2-0.4l-0.2-0.4l-0.2-0.4l-0.2-0.4l-0.2-0.4
		l-0.2-0.4l-0.2-0.4l-0.2-0.4l-0.2-0.4l-0.3-0.4l-0.2-0.4l-0.2-0.4l-0.3-0.4l-0.3-0.4l-0.3-0.4l-0.3-0.4l-0.3-0.4l-0.3-0.4l-0.3-0.4
		l-0.3-0.4l-0.3-0.4l-0.3-0.4l-0.3-0.4l-0.3-0.4l-0.3-0.3l-0.3-0.4l-0.3-0.3l-0.3-0.4l-0.3-0.3l-0.3-0.3l-0.3-0.3l-0.3-0.3l-0.3-0.3
		l-0.3-0.3l-0.3-0.3l-0.3-0.3l-0.3-0.3l-0.3-0.3l-0.3-0.3l-0.3-0.3l-0.3-0.3l-0.3-0.3l-0.3-0.3l-0.3-0.3l-0.3-0.3l-0.3-0.3l-0.3-0.3
		l-0.3-0.3l-0.3-0.3l-0.3-0.3l-0.3-0.3l-0.3-0.3l-0.3-0.3l-0.3-0.3l-0.3-0.3l-0.3-0.3l-0.3-0.3l-0.3-0.3l-0.3-0.3l-0.3-0.3l-0.3-0.3
		l-0.3-0.3l-0.3-0.3l-0.3-0.3l-0.3-0.3l-0.3-0.3l-0.3-0.3l-0.3-0.3l-0.3-0.3l-0.3-0.3l-0.3-0.3l-0.3-0.3l-0.3-0.3l-0.3-0.3l-0.3-0.3
		l-0.3-0.3l-0.3-0.3l-0.3-0.3l-0.3-0.3l-0.3-0.3l-0.3-0.3l-0.3-0.3l-0.3-0.3l-0.3-0.3l-0.3-0.3l-0.3-0.3l-0.3-0.3l-0.3-0.3l-0.3-0.3
		l-0.3-0.3l-0.3-0.3l-0.3-0.3l-0.3-0.3l-0.3-0.3l-0.3-0.3l-0.3-0.3l-0.4-0.3l-0.3-0.3l-0.4-0.3l-0.4-0.3l-0.4-0.3l-0.4-0.3l-0.4-0.3
		l-0.4-0.3l-0.4-0.3l-0.4-0.3l-0.4-0.3l-0.4-0.3l-0.4-0.3l-0.4-0.3l-0.4-0.3l-0.4-0.3l-0.4-0.3l-0.4-0.3l-0.4-0.3l-0.4-0.3l-0.4-0.3
		l-0.4-0.3l-0.4-0.3l-0.4-0.3l-0.4-0.3l-0.4-0.3l-0.4-0.3l-0.4-0.3l-0.4-0.3l-0.4-0.3l-0.4-0.3l-0.4-0.3l-0.4-0.3l-0.4-0.3l-0.4-0.3
		l-0.4-0.3l-0.4-0.3l-0.4-0.3l-0.4-0.3l-0.4-0.3l-0.4-0.3l-0.4-0.3l-0.4-0.3l-0.4-0.3l-0.4-0.3l-0.4-0.3l-0.4-0.3l-0.4-0.3l-0.4-0.3
		l-0.4-0.3l-0.4-0.3l-0.4-0.3l-0.4-0.3l-0.4-0.3l-0.4-0.3l-0.4-0.2l-0.4-0.3l-0.4-0.2l-0.4-0.2l-0.4-0.2l-0.4-0.2l-0.4-0.2l-0.4-0.2
		l-0.4-0.2l-0.4-0.2l-0.4-0.2l-0.4-0.2l-0.4-0.2l-0.4-0.2l-0.4-0.2l-1-0.6l-1-0.6l-1-0.6l-1.1-0.6l-1-0.5l-1-0.6l-1.1-0.5l-1-0.5
		l-1.1-0.5l-1-0.5l-1-0.5l-1.1-0.5l-1-0.5l-1.1-0.5l-1-0.5l-1.1-0.5l-1.1-0.5l-1.1-0.5l-1.1-0.5l-1.1-0.5l-1.1-0.5l-1.1-0.5
		l-1.1-0.5l-1.1-0.5l-1.1-0.5l-1.1-0.5l-0.5-0.2l-0.5-0.2l-0.5-0.2l-0.5-0.2l-0.5-0.2l-0.5-0.2l-0.5-0.2l-0.5-0.2l-0.5-0.2l-0.5-0.2
		l-0.5-0.2l-0.5-0.2l-0.5-0.2l-0.5-0.2l-0.5-0.2l-0.5-0.2l-0.5-0.2l-0.5-0.2l-0.5-0.2l-0.5-0.2l-0.5-0.2l-0.5-0.2l-0.5-0.2l-0.5-0.2
		l-0.5-0.2l-0.5-0.2l-0.5-0.2l-0.5-0.2l-0.5-0.2l-0.5-0.2l-0.5-0.2l-0.5-0.2l-0.5-0.2l-0.5-0.2l-0.5-0.2l-0.5-0.2l-0.5-0.2l-0.5-0.2
		l-0.5-0.2l-0.5-0.2l-0.5-0.2l-0.5-0.2l-0.6-0.2l-0.5-0.2l-0.5-0.2l-0.5-0.2l-0.6-0.2l-0.6-0.2l-0.5-0.2l-0.6-0.2l-0.6-0.2l-0.6-0.2
		l-0.6-0.1l-0.6-0.2l-0.6-0.1l-0.6-0.1l-0.6-0.1l-0.6-0.1l-0.6-0.1l-0.6-0.1l-0.6-0.1l-0.6-0.1l-0.6-0.1l-0.6-0.1l-0.6-0.1l-0.6-0.1
		l-0.6-0.1l-0.6-0.1l-0.6-0.1l-0.6-0.1l-0.6-0.1l-0.6-0.1l-0.6-0.1l-0.6-0.1l-0.6-0.1l-0.6-0.1l-0.7-0.1l-0.7-0.1l-0.7-0.1l-0.7-0.1
		l-0.7-0.1l-0.7-0.1l-0.7-0.1l-0.7-0.1l-0.7-0.1l-0.7-0.1l-0.7-0.1l-0.7-0.1l-0.7-0.1l-0.7-0.1l-0.7-0.1l-0.7-0.1l-0.7-0.1l-0.7-0.1
		l-0.7-0.1l-0.7-0.1l-0.7-0.1l-0.7-0.1l-0.7-0.1l-0.7-0.1l-0.7-0.1l-0.7-0.1l-0.7,0l-0.7,0l-0.7,0l-0.7,0l-0.7,0l-0.7,0l-0.7,0
		l-0.7,0l-0.7,0l-0.7,0l-0.7,0l-0.7,0l-0.7,0H972l-0.7,0L970.6,215.3L970.6,215.3z"/>
	<path class="st7" d="M955.6,741.1c-79.3-13.8-98.1-50.7-102.6-67.6c-8.6-31.7-12.8-93.2-5-125.9c2.7-11.4,7.8-24.3,16.4-33.7
		c19-20.7,103.9-22.5,135.6-17.6c12.7,1.9,24.2,6.3,35.5,11.2c39.5,16.8,53.1,210.6-21.9,229.5C993.6,742.1,968.2,743.3,955.6,741.1
		z"/>
	<circle class="st7" cx="818.2" cy="397.8" r="5.5"/>
	<circle class="st7" cx="1093.4" cy="407.9" r="5.5"/>
	<g>
		<path class="st8" d="M883.9,416.9c-1.6,8.2-12.1,31.6,2.1,37.9c15.8,7,23.7-9.7,30.3-25.4"/>
		<path class="st2" d="M884.2,411.9l0.3,0l0.3,0l0.3,0.1l0.3,0.1l0.3,0.1l0.3,0.1l0.3,0.1l0.3,0.1l0.2,0.1l0.2,0.2l0.2,0.2l0.2,0.2
			l0.2,0.2l0.2,0.2l0.2,0.2l0.2,0.2l0.2,0.2l0.1,0.2l0.1,0.2l0.1,0.3l0.1,0.3l0.1,0.3l0.1,0.3l0.1,0.3l0,0.3l0,0.3l0,0.3v0.3l0,0.3
			l0,0.3l-0.1,0.3l0,0.2l-0.1,0.2l-0.1,0.2l-0.1,0.3l-0.1,0.3l-0.1,0.3l-0.1,0.3l-0.1,0.3l-0.1,0.5l-0.1,0.5l-0.1,0.5l-0.2,0.6
			l-0.2,0.6l-0.2,0.6l-0.3,1.2l-0.4,1.2l-0.2,0.6l-0.2,0.6l-0.2,0.6l-0.2,0.6l-0.2,0.6l-0.2,0.7l-0.2,0.7l-0.1,0.3l-0.1,0.3
			l-0.1,0.3l-0.1,0.3l-0.1,0.3L885,432l-0.1,0.3l-0.1,0.3l-0.1,0.3l-0.1,0.3l-0.1,0.3l-0.1,0.3l-0.1,0.3l-0.1,0.3l-0.1,0.3l-0.1,0.3
			l-0.1,0.3l-0.1,0.3l-0.1,0.3l-0.1,0.3l0,0.3l0,0.3l0,0.3l0,0.3l0,0.3l0,0.3l0,0.3l0,0.3l0,0.3l0,0.3l0,0.3l0,0.3l0,0.3l0,0.3v0.3
			l0,0.3l0,0.3l0,0.3l0,0.3l0,0.3l0,0.3l0,0.1l0,0.1l0,0.1l0,0.1l0,0.1l0,0.1l0,0.1l0,0.1l0,0.1l0,0.1l0,0.1l0,0.1l0,0.1l0,0.1
			l0,0.1l0,0.1l0,0.1l0,0.1l0,0.1l0,0.1l0,0.1l0,0.1l0,0.1l0,0.1l0,0.1l0,0.1l0,0.1l0,0.1l0,0.1l0,0.1l0,0.1l0,0.1l0,0.1l0,0.1
			l0,0.1l0,0.1l0,0.1l0,0.1l0,0.1l0,0.1l0,0.1l0,0.1l0,0.1l0,0.1l0,0.1l0,0.1l0,0.1l0,0.1l0,0.1l0,0.1l0,0.1l0,0.1l0.1,0.1l0,0.1
			l0,0.1l0.1,0.1l0.1,0.1l0,0.1l0.1,0.1l0.1,0.1l0.1,0.1l0.1,0.1l0.1,0.1l0.1,0.1l0.1,0.1l0.1,0.1l0.1,0.1l0.1,0.1l0.1,0.1l0.1,0.1
			l0.1,0.1l0.1,0.1l0.1,0.1l0.1,0.1l0.1,0.1l0.1,0.1l0.1,0.1l0.1,0.1l0.1,0.1l0.1,0l0.1,0.1l0.1,0l0.1,0.1l0.1,0l0.1,0.1l0.1,0
			l0.1,0l0.1,0l0.1,0l0.1,0l0.1,0.1l0.1,0.1l0.1,0.1l0.1,0.1l0.1,0.1l0.1,0.1l0.1,0l0.1,0.1l0.1,0l0.1,0l0.1,0l0.1,0l0.1,0l0.1,0
			l0.1,0l0.1,0l0.1,0l0.1,0l0.1,0l0.1,0l0.1,0l0.1,0l0.1,0l0.1,0l0.1,0l0.1,0l0.1,0l0.1,0l0.1,0l0.1,0l0.1,0l0.1,0l0.1,0l0.1,0
			l0.1,0l0.1,0l0.1,0h0.1l0.1,0h0.1h0.1h0.1h0.1h0.1l0.1,0l0.1,0l0.1,0l0.1,0l0.1,0l0.1,0l0.1,0l0.1,0l0.1,0l0.1,0l0.1,0l0.1,0
			l0.1,0l0.1,0l0.1,0l0.1,0l0.1,0l0.1,0l0.1,0l0.1,0l0.1,0l0.1,0l0.1,0l0.1,0l0.1,0l0.1,0l0.1,0l0.1,0l0.1,0l0.1,0l0.1,0l0.1,0
			l0.1,0l0.1,0l0.1,0l0.1,0l0.1,0l0.1,0l0.1,0l0.1,0l0.1,0l0.1,0l0.1,0l0.1,0l0.1-0.1l0.1,0l0.1-0.1l0.1-0.1l0.1-0.1l0.1-0.1
			l0.1-0.1l0.1-0.1l0.1-0.1l0.1-0.1l0.1-0.1l0.1-0.1l0.1-0.1l0.1-0.1l0.1-0.1l0.1-0.1l0.1-0.1l0.1-0.1l0.1-0.1l0.1-0.1l0.2-0.2
			l0.2-0.2l0.2-0.2l0.2-0.2l0.2-0.2l0.2-0.2l0.2-0.2l0.2-0.2l0.2-0.2l0.2-0.2l0.2-0.2l0.2-0.2l0.2-0.2l0.2-0.2l0.2-0.2l0.2-0.2
			l0.2-0.2l0.2-0.2l0.2-0.2l0.2-0.2l0.2-0.2l0.2-0.3l0.2-0.3l0.2-0.3l0.2-0.3l0.2-0.3l0.2-0.3l0.2-0.3l0.2-0.3l0.2-0.3l0.2-0.3
			l0.2-0.3l0.2-0.3l0.2-0.3l0.2-0.3l0.2-0.3l0.2-0.3l0.2-0.3l0.2-0.3l0.2-0.3l0.2-0.3l0.2-0.3l0.2-0.3l0.2-0.3l0.2-0.3l0.2-0.3
			l0.2-0.3l0.2-0.3l0.2-0.3l0.2-0.3l0.2-0.3l0.2-0.3l0.2-0.3l0.2-0.3l0.3-0.7l0.3-0.7l0.3-0.7l0.3-0.7l0.3-0.7l0.3-0.7l0.3-0.7
			l0.3-0.7l0.3-0.7l0.3-0.7l0.1-0.3l0.1-0.2l0.1-0.2l0.2-0.2l0.2-0.2l0.2-0.2l0.2-0.2l0.2-0.2l0.2-0.2l0.2-0.2l0.2-0.2l0.2-0.1
			l0.2-0.1l0.3-0.1l0.3-0.1l0.3-0.1l0.3-0.1l0.3-0.1l0.3,0l0.3,0l0.3,0h0.3l0.3,0l0.3,0l0.3,0l0.3,0.1l0.3,0.1l0.3,0.1l0.3,0.1
			l0.2,0.1l0.2,0.1l0.2,0.1l0.2,0.2l0.2,0.2l0.2,0.2l0.2,0.2l0.2,0.2l0.2,0.2l0.2,0.2l0.1,0.2l0.1,0.2l0.1,0.2l0.1,0.3l0.1,0.3
			l0.1,0.3l0.1,0.3l0,0.3l0,0.3l0,0.3l0,0.3l0,0.3l0,0.3l0,0.3l-0.1,0.3l-0.1,0.3l-0.1,0.3l-0.1,0.3l-0.3,0.7l-0.3,0.7l-0.3,0.7
			l-0.3,0.8l-0.3,0.7l-0.3,0.8l-0.3,0.8l-0.3,0.8l-0.3,0.7l-0.3,0.7l-0.2,0.4l-0.2,0.4l-0.2,0.4l-0.2,0.4l-0.2,0.4l-0.2,0.4
			l-0.2,0.4l-0.2,0.4l-0.2,0.4l-0.2,0.4l-0.2,0.4l-0.2,0.4l-0.2,0.4l-0.2,0.4l-0.2,0.4l-0.2,0.4l-0.2,0.4l-0.2,0.4l-0.2,0.4
			l-0.2,0.4l-0.2,0.4l-0.2,0.3l-0.2,0.4l-0.2,0.3l-0.2,0.3l-0.2,0.3l-0.2,0.3l-0.2,0.3l-0.2,0.3l-0.2,0.3l-0.2,0.3l-0.2,0.3
			l-0.2,0.3l-0.2,0.3l-0.2,0.3l-0.2,0.3l-0.2,0.3l-0.2,0.3l-0.2,0.3l-0.3,0.3l-0.3,0.3l-0.3,0.3l-0.3,0.3l-0.3,0.3l-0.3,0.3
			l-0.3,0.3l-0.3,0.3l-0.3,0.3l-0.3,0.3l-0.3,0.3l-0.3,0.3l-0.3,0.3l-0.3,0.3l-0.3,0.2l-0.2,0.1l-0.2,0.1l-0.1,0.1l-0.2,0.1
			l-0.2,0.1l-0.2,0.1l-0.2,0.1l-0.2,0.1l-0.2,0.1l-0.2,0.1l-0.2,0.1l-0.2,0.1l-0.2,0.1l-0.2,0.1l-0.2,0.1l-0.2,0.1l-0.2,0.1
			l-0.2,0.1l-0.2,0.1l-0.2,0.1l-0.2,0.1l-0.2,0.1l-0.2,0.1l-0.2,0.1l-0.2,0.1l-0.2,0.1l-0.2,0.1l-0.2,0.1l-0.2,0.1l-0.2,0.1
			l-0.2,0.1l-0.2,0.1l-0.2,0.1l-0.2,0.1l-0.2,0.1l-0.2,0.1l-0.2,0.1l-0.2,0.1l-0.2,0.1l-0.2,0.1l-0.2,0.1l-0.2,0.1l-0.2,0.1
			l-0.2,0.1l-0.2,0.1l-0.2,0l-0.2,0l-0.2,0l-0.2,0l-0.2,0l-0.2,0l-0.2,0l-0.2,0l-0.2,0l-0.2,0l-0.2,0l-0.2,0l-0.2,0l-0.2,0l-0.2,0
			l-0.2,0l-0.2,0l-0.2,0l-0.2,0h-0.2l-0.2,0H893h-0.2l-0.2,0l-0.2,0l-0.2,0l-0.2,0l-0.2,0l-0.2,0l-0.2,0l-0.2,0l-0.2,0l-0.2,0
			l-0.2,0l-0.2,0l-0.2,0l-0.2,0l-0.2,0l-0.2,0l-0.2,0l-0.2,0l-0.2,0l-0.2-0.1l-0.2-0.1l-0.2-0.1l-0.2-0.1l-0.2-0.1l-0.2-0.1
			l-0.2-0.1l-0.2-0.1l-0.2-0.1l-0.2-0.1l-0.2-0.1l-0.2-0.1l-0.2-0.1l-0.2-0.1l-0.2-0.1l-0.2-0.1l-0.2-0.1l-0.2-0.1l-0.2-0.1
			l-0.2-0.1l-0.2-0.1l-0.2-0.1l-0.2-0.1l-0.2-0.1l-0.2-0.1l-0.2-0.1l-0.2-0.1l-0.2-0.1l-0.2-0.1l-0.2-0.1l-0.2-0.1l-0.2-0.1
			l-0.2-0.1l-0.2-0.1l-0.2-0.1l-0.2-0.1l-0.2-0.1l-0.2-0.1l-0.2-0.1l-0.2-0.1l-0.2-0.1l-0.2-0.1l-0.2-0.1l-0.2-0.2l-0.2-0.2
			l-0.2-0.2l-0.2-0.2l-0.2-0.2l-0.2-0.2l-0.2-0.2l-0.1-0.2l-0.2-0.2L878,455l-0.1-0.2l-0.1-0.2l-0.1-0.2l-0.1-0.2l-0.1-0.2l-0.1-0.2
			l-0.1-0.2l-0.1-0.2l-0.1-0.2l-0.1-0.2l-0.1-0.2l-0.1-0.2l-0.1-0.2l-0.1-0.2l-0.1-0.2L876,452l-0.1-0.2l-0.1-0.2l-0.1-0.2l-0.1-0.2
			l-0.1-0.2l-0.1-0.2l-0.1-0.2l-0.1-0.2l-0.1-0.2l-0.1-0.2l-0.1-0.2l-0.1-0.2l-0.1-0.2l-0.1-0.2l-0.1-0.2l-0.1-0.2l-0.1-0.2
			l-0.1-0.2l-0.1-0.2l-0.1-0.2l-0.1-0.2l0-0.2l0-0.2l0-0.2l0-0.2l0-0.2l0-0.2l0-0.2l0-0.2l0-0.2l0-0.2l0-0.2l0-0.2l0-0.2l0-0.2
			l0-0.2l0-0.2l0-0.2l0-0.2l0-0.2l0-0.2l0-0.2l0-0.4l0-0.4l0-0.4l0-0.4v-0.4v-0.4l0-0.4l0-0.4l0-0.4l0-0.4l0-0.4l0-0.4l0-0.4l0-0.4
			l0-0.4l0-0.4l0-0.4l0.1-0.4l0-0.4l0.1-0.4l0.1-0.4l0.1-0.4l0.1-0.4l0.1-0.4l0.1-0.4l0.1-0.4l0.1-0.4l0.1-0.4l0.1-0.4l0.1-0.4
			l0.1-0.4l0.1-0.4l0.1-0.4l0.1-0.4l0.1-0.4l0.1-0.4l0.1-0.4l0.1-0.4l0.1-0.4l0.1-0.4l0.1-0.4l0.2-0.7l0.2-0.7l0.2-0.7l0.2-0.7
			l0.2-0.7l0.2-0.7l0.2-0.6l0.4-1.2l0.3-1.2l0.2-0.6l0.2-0.5l0.1-0.5l0.1-0.5l0.1-0.5l0.1-0.4l0.1-0.2l0-0.2l0-0.2l0-0.2l0-0.2
			l0-0.2l0-0.1l0-0.2l0.1-0.3l0.1-0.3l0.1-0.3l0.1-0.3l0.1-0.3l0.1-0.2l0.1-0.2l0.2-0.2l0.2-0.2l0.2-0.2l0.2-0.2l0.2-0.2l0.2-0.2
			l0.2-0.2l0.2-0.1l0.2-0.1l0.3-0.1l0.3-0.1l0.3-0.1l0.3-0.1l0.3-0.1l0.3-0.1l0.3,0l0.3,0l0.3,0L884.2,411.9L884.2,411.9z"/>
		<path class="st2" d="M940.4,370.1c15.4,0.9,27.3,9.6,26.7,19.4c-0.6,9.8-13.6,16.9-28.9,16c-15.4-0.9-27.3-9.6-26.7-19.4
			C912.1,376.3,925,369.1,940.4,370.1z"/>
		<path class="st2" d="M937.9,395.1l0.2,0l0.2,0l0.2,0l0.2,0l0.2,0.1l0.2,0.1l0.2,0.1l0.2,0.1l0.2,0.1l0.2,0.1l0.2,0.1l0.2,0.1
			l0.2,0.1l0.2,0.1l0.2,0.1l0.2,0.1l0.2,0.2l0.1,0.2l0.1,0.2l0.1,0.2l0.1,0.2l0.1,0.2l0.1,0.2l0.1,0.2l0.1,0.2l0.1,0.2l0.1,0.2
			l0.1,0.2l0.1,0.2l0,0.2l0,0.2l0,0.2l0,0.2l0,0.2v0.2l0,0.4l0,0.4l0,0.4l0,0.4l0,0.4l0,0.4l0,0.4l0,0.4l0,0.4l0,0.4l0,0.4l0,0.4
			l0,0.4l0,0.4l-0.1,0.8l-0.1,0.8l-0.1,0.8l-0.1,0.8l-0.1,0.8l-0.1,0.8l-0.1,0.8l-0.1,0.8l-0.1,0.8l-0.2,1.6l-0.2,1.6l-0.2,1.5
			l-0.1,0.8l-0.1,0.8l-0.1,0.8l-0.1,0.8l-0.1,0.8l-0.1,0.8l-0.1,0.8l-0.1,0.8l-0.1,0.8l-0.1,0.8l0,0.2l0,0.2l0,0.2l0,0.2l-0.1,0.2
			l-0.1,0.2l-0.1,0.2l-0.1,0.2l-0.1,0.2l-0.1,0.2l-0.1,0.2l-0.1,0.2l-0.1,0.2l-0.1,0.2l-0.1,0.2l-0.1,0.2l-0.2,0.1l-0.2,0.1
			l-0.2,0.1l-0.2,0.1l-0.2,0.1l-0.2,0.1l-0.2,0.1l-0.2,0.1l-0.2,0.1l-0.2,0.1l-0.2,0.1l-0.2,0.1l-0.2,0.1l-0.2,0l-0.2,0l-0.2,0
			l-0.2,0l-0.2,0l-0.2,0l-0.2,0l-0.2,0l-0.2,0l-0.2,0l-0.2-0.1l-0.2-0.1l-0.2-0.1l-0.2-0.1l-0.2-0.1l-0.2-0.1l-0.2-0.1l-0.2-0.1
			l-0.2-0.1l-0.2-0.1l-0.2-0.1l-0.2-0.1l-0.2-0.2l-0.1-0.2l-0.1-0.2l-0.1-0.2l-0.1-0.2l-0.1-0.2l-0.1-0.2l-0.1-0.2l-0.1-0.2
			l-0.1-0.2l-0.1-0.2l-0.1-0.2l-0.1-0.2l0-0.2l0-0.2l0-0.2l0-0.2l0-0.2v-0.2l0-0.2l0.1-0.8l0.1-0.8l0.1-0.8l0.1-0.8l0.1-0.8l0.1-0.8
			l0.1-0.8l0.1-0.8l0.1-0.8l0.1-0.8l0.2-1.6l0.2-1.5l0.2-1.5l0.1-0.8l0.1-0.8l0.1-0.8l0.1-0.8l0.1-0.8l0.1-0.8l0.1-0.7l0.1-0.7
			l0.1-0.8l0-0.4l0-0.4l0-0.4l0-0.4l0-0.4l0-0.4l0-0.4l0-0.4l0-0.4l0-0.4l0-0.4l0-0.4l0-0.4l0-0.4l0-0.2l0-0.2l0-0.2l0-0.2l0.1-0.2
			l0.1-0.2l0.1-0.2l0.1-0.2l0.1-0.2l0.1-0.2l0.1-0.2l0.1-0.2l0.1-0.2l0.1-0.2l0.1-0.2l0.1-0.2l0.2-0.2l0.2-0.2l0.2-0.1l0.2-0.1
			l0.2-0.1l0.2-0.1l0.2-0.1l0.2-0.1l0.2-0.1l0.2-0.1l0.2-0.1l0.2-0.1l0.2-0.1l0.2-0.1l0.2,0l0.2,0l0.2,0l0.2,0l0.2,0L937.9,395.1
			L937.9,395.1z"/>
		<path class="st2" d="M980.7,402.7l0.4,0l0.4,0.1l0.4,0.1l0.4,0.2l0.4,0.2l0.4,0.2l0.4,0.3l0.3,0.3l0.3,0.3l0.3,0.3l0.2,0.4
			l0.2,0.4l0.2,0.4l0.1,0.4l0.1,0.4l0.1,0.4l0,0.4l0,0.4l0,0.4l-0.1,0.4l-0.1,0.4l-0.2,0.4l-0.2,0.4l-0.2,0.4l-0.3,0.4l-0.4,0.5
			l-0.4,0.5l-0.4,0.5l-0.4,0.5l-0.4,0.5l-0.4,0.5l-0.4,0.5l-0.4,0.5l-0.4,0.5l-0.4,0.5l-0.4,0.5l-0.4,0.5l-0.2,0.2l-0.2,0.2
			l-0.2,0.2l-0.2,0.2l-0.2,0.2l-0.2,0.2l-0.2,0.2l-0.2,0.2l-0.2,0.2l-0.2,0.2l-0.2,0.2l-0.2,0.2l-0.2,0.2l-0.2,0.2l-0.2,0.2
			l-0.2,0.2l-0.2,0.2l-0.2,0.2l-0.2,0.2l-0.3,0.2L974,422l-0.3,0.2l-0.3,0.2l-0.3,0.2l-0.3,0.2l-0.3,0.2l-0.3,0.2l-0.3,0.2l-0.3,0.2
			l-0.3,0.2l-0.3,0.2l-0.3,0.2l-0.3,0.2l-0.3,0.2l-0.3,0.2l-0.3,0.2l-0.3,0.2l-0.3,0.2l-0.3,0.2l-0.3,0.2l-0.3,0.2l-0.3,0.2
			l-0.3,0.2l-0.3,0.2l-0.3,0.2l-0.3,0.2l-0.3,0.2l-0.3,0.2l-0.3,0.2l-0.3,0.2l-0.3,0.2l-0.3,0.2l-0.3,0.2l-0.3,0.2l-0.3,0.2
			l-0.3,0.2l-0.3,0.2l-0.3,0.2l-0.3,0.2l-0.3,0.2l-0.3,0.2l-0.3,0.1l-0.3,0.1l-0.3,0.1l-0.3,0.1l-0.3,0.1l-0.3,0.1l-0.3,0.1
			l-0.3,0.1l-0.3,0.1l-0.3,0.1l-0.3,0.1l-0.3,0.1l-0.3,0.1l-0.3,0.1l-0.3,0.1l-0.3,0.1l-0.3,0.1l-0.3,0.1l-0.3,0.1l-0.3,0.1
			l-0.3,0.1l-0.3,0.1l-0.3,0.1l-0.4,0.1l-0.4,0.1l-0.4,0.1l-0.4,0.1l-0.4,0.1l-0.4,0.1l-0.4,0.1l-0.4,0.1l-0.4,0.1l-0.4,0.1
			l-0.4,0.1l-0.4,0.1l-0.4,0.1l-0.4,0.1l-0.4,0.1l-0.4,0.1l-0.4,0.1l-0.4,0.1l-0.4,0l-0.4,0l-0.4,0l-0.4,0l-0.4,0l-0.4,0l-0.4,0
			l-0.4,0l-0.4,0l-0.4,0l-0.4,0l-0.4,0l-0.4,0l-0.4,0l-0.4,0l-0.4,0l-0.4,0h-0.4h-0.4h-0.4l-0.4,0l-0.4,0l-0.4,0l-0.4,0l-0.4,0
			l-0.4,0l-0.4,0l-0.4,0l-0.4,0l-0.4,0l-0.4,0l-0.4,0l-0.4,0l-0.5,0l-0.5,0l-0.5,0l-0.5-0.1l-0.5-0.1l-0.5-0.1l-0.5-0.1l-0.5-0.1
			l-0.5-0.1l-0.5-0.1l-0.5-0.1l-0.5-0.1l-0.5-0.1l-0.5-0.1l-0.5-0.1l-0.5-0.1l-0.5-0.1l-0.5-0.1l-0.5-0.1l-0.5-0.1l-0.5-0.1
			l-0.5-0.1l-0.5-0.1l-0.5-0.1l-0.5-0.1l-0.5-0.1l-0.5-0.1l-0.5-0.1l-0.5-0.1l-0.5-0.1l-0.5-0.1l-0.5-0.1l-0.5-0.1l-0.5-0.1
			l-0.5-0.1l-0.5-0.1l-0.5-0.1l-0.6-0.2l-0.6-0.2l-0.6-0.2l-0.6-0.2l-0.6-0.2l-0.6-0.2l-0.6-0.2l-0.6-0.2l-0.6-0.2l-0.6-0.2
			l-0.6-0.2l-0.6-0.2l-0.6-0.2l-0.6-0.2l-0.6-0.2l-0.6-0.2l-0.6-0.2l-0.6-0.2l-0.6-0.2l-0.6-0.2l-0.6-0.2l-0.6-0.2l-0.6-0.2
			l-0.6-0.2l-0.6-0.2l-0.6-0.2l-0.6-0.2l-0.6-0.2l-0.6-0.3l-0.6-0.3l-0.6-0.3l-0.6-0.3l-0.7-0.3l-0.7-0.3l-0.7-0.3l-0.7-0.3
			l-0.7-0.3l-0.7-0.3l-0.7-0.3l-0.7-0.3l-0.7-0.3l-0.7-0.3l-0.7-0.3l-0.7-0.3l-0.7-0.3l-0.7-0.3l-0.7-0.3l-0.7-0.3l-0.7-0.3
			l-0.7-0.3l-0.7-0.3l-0.7-0.3l-0.7-0.3l-0.7-0.3l-0.7-0.3l-0.7-0.4l-0.7-0.4l-0.7-0.4l-0.7-0.4l-0.7-0.4l-0.4-0.2l-0.4-0.2
			l-0.3-0.3l-0.3-0.3l-0.3-0.3l-0.3-0.4l-0.2-0.4l-0.2-0.4l-0.2-0.4l-0.1-0.4l-0.1-0.4l-0.1-0.4l0-0.4l0-0.4l0.1-0.4l0.1-0.4
			l0.1-0.4l0.2-0.4l0.2-0.4l0.2-0.4l0.3-0.3l0.3-0.3l0.3-0.3l0.4-0.3l0.4-0.2l0.4-0.2l0.4-0.2l0.4-0.1l0.4-0.1l0.4,0l0.4,0l0.4,0
			l0.4,0.1l0.4,0.1l0.4,0.1l0.4,0.2l0.7,0.4l0.7,0.4l0.7,0.3l0.7,0.3l0.7,0.3l0.7,0.3l0.7,0.3l0.7,0.3l0.7,0.3l0.7,0.3l0.7,0.3
			l0.7,0.3l0.7,0.3l0.7,0.3l0.7,0.3l0.7,0.3l0.7,0.3l0.7,0.3l0.7,0.3l0.7,0.3l0.7,0.3l0.6,0.3l0.6,0.3l0.6,0.3l0.6,0.3l0.6,0.3
			l0.6,0.3l0.6,0.3l0.6,0.3l0.6,0.3l0.6,0.2l0.6,0.2l0.6,0.2l0.6,0.2l0.6,0.2l0.6,0.2l0.6,0.2l0.6,0.2l0.6,0.2l0.6,0.2l0.6,0.2
			l0.6,0.2l0.6,0.2l0.6,0.2l0.6,0.2l0.6,0.2l0.6,0.2l0.6,0.2l0.5,0.2l0.5,0.2l0.5,0.2l0.5,0.2l0.5,0.2l0.5,0.2l0.5,0.2l0.5,0.2
			l0.5,0.2l0.5,0.1l0.5,0.1l0.5,0.1l0.5,0.1l0.5,0.1l0.5,0.1l0.5,0.1l0.5,0.1l0.5,0.1l0.5,0.1l0.5,0.1l0.5,0.1l0.5,0.1l0.5,0.1
			l0.5,0.1l0.5,0.1l0.5,0.1l0.5,0.1l0.5,0.1l0.5,0.1l0.4,0.1l0.4,0.1l0.4,0.1l0.4,0.1l0.4,0.1l0.4,0.1l0.4,0.1l0.4,0.1l0.4,0.1
			l0.4,0.1l0.4,0.1l0.4,0.1l0.4,0.1l0.4,0.1l0.4,0.1l0.4,0l0.4,0l0.4,0l0.4,0l0.4,0l0.4,0l0.4,0l0.4,0l0.4,0l0.4,0l0.4,0l0.4,0
			l0.4,0l0.4,0l0.4,0l0.4,0l0.4,0l0.4,0h0.4l0.4,0l0.4,0h0.3l0.3,0l0.3,0l0.3,0l0.3,0l0.3,0l0.3,0l0.3,0l0.3,0l0.3,0l0.3,0l0.3,0
			l0.3,0l0.3,0l0.3,0l0.3,0l0.3,0l0.3,0l0.3,0l0.3,0l0.3,0l0.3,0l0.3-0.1l0.3-0.1l0.3-0.1l0.3-0.1l0.3-0.1l0.3-0.1l0.3-0.1l0.3-0.1
			l0.3-0.1l0.3-0.1l0.3-0.1l0.3-0.1l0.3-0.1l0.3-0.1l0.3-0.1l0.3-0.1l0.3-0.1l0.3-0.1l0.3-0.1l0.3-0.1l0.3-0.1l0.3-0.1l0.3-0.1
			l0.3-0.1l0.3-0.1l0.3-0.1l0.3-0.1l0.2-0.1l0.3-0.1l0.2-0.1l0.2-0.1l0.2-0.1l0.2-0.1l0.2-0.1l0.2-0.1l0.2-0.1l0.2-0.1l0.2-0.1
			l0.2-0.1l0.2-0.1l0.2-0.1l0.2-0.1l0.2-0.1l0.2-0.1l0.2-0.1l0.2-0.1l0.2-0.1l0.2-0.1l0.2-0.1l0.2-0.1l0.2-0.1l0.2-0.1l0.2-0.1
			l0.2-0.1l0.2-0.1l0.2-0.1l0.2-0.1l0.2-0.2l0.2-0.2l0.2-0.2l0.2-0.2l0.2-0.2l0.2-0.2l0.2-0.2l0.2-0.2l0.2-0.2l0.2-0.2l0.2-0.2
			l0.2-0.2l0.2-0.2l0.2-0.2l0.2-0.2l0.2-0.2l0.2-0.2l0.2-0.2l0.2-0.2l0.2-0.2l0.2-0.2l0.2-0.2l0.2-0.2l0.2-0.2l0.2-0.2l0.2-0.2
			l0.2-0.2l0.2-0.2l0.2-0.2l0.2-0.2l0.2-0.2l0.2-0.2l0.2-0.2l0.2-0.2l0.2-0.2l0.2-0.2l0.2-0.2l0.2-0.2l0.2-0.2l0.2-0.2l0.4-0.4
			l0.4-0.4l0.4-0.4l0.4-0.5l0.4-0.5l0.4-0.5l0.4-0.5l0.4-0.5l0.4-0.5l0.4-0.5l0.4-0.5l0.4-0.5l0.3-0.3l0.3-0.3l0.3-0.3l0.4-0.2
			l0.4-0.2l0.4-0.2l0.4-0.1l0.4-0.1l0.4-0.1l0.4,0L980.7,402.7L980.7,402.7z"/>
		<path class="st7" d="M882.6,240.1c5.8-1.8,11.3-0.7,12.3,2.3c0.9,3-3.1,6.9-8.9,8.7c-5.8,1.8-11.3,0.7-12.3-2.3
			C872.8,245.7,876.8,241.8,882.6,240.1z"/>
		<path class="st7" d="M1096,266c3.9,4.7,5.2,10.1,2.7,12.2c-2.4,2-7.6-0.1-11.5-4.8s-5.2-10.1-2.7-12.2
			C1086.9,259.1,1092,261.3,1096,266z"/>
		<path class="st9" d="M843,260.4c31.2-4.4,60.1,17.3,64.5,48.4c4.4,31.2-17.3,60.1-48.4,64.5c-31.2,4.4-60.1-17.3-64.5-48.4
			C790.2,293.7,811.9,264.8,843,260.4z"/>
		<path class="st9" d="M1044,277.1c31.2-4.4,60.1,17.3,64.5,48.4c4.4,31.2-17.3,60.1-48.4,64.5c-31.2,4.4-60.1-17.3-64.5-48.4
			C991.2,310.4,1012.9,281.5,1044,277.1z"/>
		<path class="st2" d="M850.6,324.8c11.1-1.6,21.3,6.1,22.9,17.2c1.6,11.1-6.1,21.3-17.2,22.9c-11.1,1.6-21.3-6.1-22.9-17.2
			C831.8,336.6,839.6,326.4,850.6,324.8z"/>
		<path class="st2" d="M1033.9,336.2c11.1-1.6,21.3,6.1,22.9,17.2c1.6,11.1-6.1,21.3-17.2,22.9c-11.1,1.6-21.3-6.1-22.9-17.2
			C1015.1,348,1022.8,337.8,1033.9,336.2z"/>
		<path class="st10" d="M854.1,347.9c3.1-0.4,6,1.7,6.4,4.8c0.4,3.1-1.7,6-4.8,6.4c-3.1,0.4-6-1.7-6.4-4.8
			C848.8,351.2,851,348.3,854.1,347.9z"/>
		<path class="st10" d="M1029.4,357.5c3.1-0.4,6,1.7,6.4,4.8c0.4,3.1-1.7,6-4.8,6.4c-3.1,0.4-6-1.7-6.4-4.8
			C1024.1,360.9,1026.3,358,1029.4,357.5z"/>
	</g>
	<path class="st11" d="M1389.6,117.5c4.7-9.1,1.1-20.3-8-25l-115-59.5c-9.1-4.7-20.3-1.1-25,8L916.9,668.5
		c-9.3,19.5-7.3,16.9,7.9,25l115,59.5c17.7,8.7,16,7.9,25-7.9L1389.6,117.5L1389.6,117.5z"/>
	<g>
		<defs>
			<path id="SVGID_00000153695946951148208340000000711961722013881743_" d="M1389.6,117.5c4.7-9.1,1.1-20.3-8-25l-115-59.5
				c-9.1-4.7-20.3-1.1-25,8L916.9,668.5c-9.3,19.5-7.3,16.9,7.9,25l115,59.5c17.7,8.7,16,7.9,25-7.9L1389.6,117.5L1389.6,117.5z"/>
		</defs>
		<clipPath id="SVGID_00000058585831372605435610000006483415297214098852_">
			<use xlink:href="#SVGID_00000153695946951148208340000000711961722013881743_"  style="overflow:visible;"/>
		</clipPath>
		<g style="clip-path:url(#SVGID_00000058585831372605435610000006483415297214098852_);">
			<path class="st13" d="M1243.4,112.6l-31.9-16.4L909.7,681.4l31.9,16.4L1243.4,112.6L1243.4,112.6z"/>
			<path class="st13" d="M1304.6,144.7l-31.9-16.4L970.9,713.5l31.9,16.4L1304.6,144.7L1304.6,144.7z"/>
			<path class="st13" d="M1360.4,174.5l-31.9-16.4l-301.8,585.3l31.8,16.4L1360.4,174.5L1360.4,174.5z"/>
			<path class="st8" d="M1403.4,101.5l-163.2-83.2l-38.2,74.8l163.2,83.2L1403.4,101.5L1403.4,101.5z"/>
			<path class="st14" d="M1382.8,173.8l-179-95.7l-9.3,17.5l179,95.7L1382.8,173.8L1382.8,173.8z"/>
		</g>
	</g>
	<path class="st15" d="M1389.6,117.5c4.7-9.1,1.1-20.3-8-25l-115-59.5c-9.1-4.7-20.3-1.1-25,8L916.9,668.5
		c-9.3,19.5-7.3,16.9,7.9,25l115,59.5c17.7,8.7,16,7.9,25-7.9L1389.6,117.5L1389.6,117.5z"/>
	<path class="st4" d="M959.1,579.7c0,0-48.3-13-57.4-41.7c-9.1-28.7,13.3-42.1,28-24.4c14.7,17.7,30.1,33.1,48.5,33.7
		C996.7,547.9,989.4,588.2,959.1,579.7z"/>
	<path class="st4" d="M1114.9,593.2c0,0,49.8,4.4,68.2-19.4c18.4-23.8,2-44.1-17.9-32.6c-19.9,11.6-39.6,20.7-57.2,14.9
		C1090.6,550.4,1083.5,590.7,1114.9,593.2z"/>
	<path class="st16" d="M1120,805H755.4L529.2,924.6h364.6L1120,805z"/>
	<path class="st17" d="M910.3,685.8l-13.2,176.4l157.2-100.8L910.3,685.8z"/>
	<g>
		<defs>
			<polygon id="SVGID_00000165213765085018573380000015279493084245421728_" points="910.3,685.8 897.1,862.2 1054.2,761.4 			"/>
		</defs>
		<clipPath id="SVGID_00000139996098463448469190000009801567861048781999_">
			<use xlink:href="#SVGID_00000165213765085018573380000015279493084245421728_"  style="overflow:visible;"/>
		</clipPath>
		<g style="clip-path:url(#SVGID_00000139996098463448469190000009801567861048781999_);">
			<path class="st2" d="M900.7,860.9l5-64.9l46.5,25.1L900.7,860.9z"/>
		</g>
	</g>
	<path class="st15" d="M910.3,685.8l-13.2,176.4l157.2-100.8L910.3,685.8z"/>
</g>
</svg>
